<svg xmlns="http://www.w3.org/2000/svg" viewBox="0 0 200 60.17" role="img" aria-labelledby="titleid04f092e79" width="200" height="60" style="width: 200px; height: 60px; display: block; transform: scale(1, 1); transition-property: none;"><defs><linearGradient class="cerosgradient" data-cerosgradient="true" id="CerosGradient_id35d7d7feb" gradientUnits="userSpaceOnUse" x1="50%" y1="100%" x2="50%" y2="0%"><stop offset="0%" stop-color="#d1d1d1" style="transition-property: none;"></stop><stop offset="100%" stop-color="#d1d1d1" style="transition-property: none;"></stop></linearGradient><linearGradient></linearGradient><style>.cls-1-id35d7d7feb{fill:#094d9d;}</style></defs><g id="Layer_2id35d7d7feb" data-name="Layer 2"><g id="graphicsid35d7d7feb"><path class="cls-1-id35d7d7feb" d="M112.72,13.69c1.11-2.59,2-5.74,3.54-8.25.81-1.35.91-1.47-.54-.74-4.11,2.08-8.16,3.23-10.37,5.47-5.85,6,3.6,12.27,7.37,3.52M108.52,11A9,9,0,0,1,111.14,10c-.59,2.54-2.06,4.74-3.47,4.46-1-.2-1.33-2.05.85-3.41M193.8,28.3a28.26,28.26,0,0,1-4.55,6.06c-3.35,3-6.21,2-7.3-1.06a37.52,37.52,0,0,1-1.32-6.54c-.7-4.71-4.71-5.46-6.53-2.3-1.1,1.9-3.07,6.76-4.25,9.23-.18.36-.42.32-.36-1.41,0-1.35.07-3,.1-4.65.15-6.71-3.63-6.4-5.23-5-1.79,1.52-2.72,4.49-3.81,6.35a27.71,27.71,0,0,1-2.64,4.32c-1.95,2.43-5.66,1.85-4.41-3.71a26.2,26.2,0,0,1,1-3.65c.56-1.61-.2-2.45-1.22-2.59-.72-.1-1.31,0-1.73-1.05-1-2.4-3.43-2.92-5.94-2.13-2.82.88-5.34,3.56-6.84,6.84h0a13.12,13.12,0,0,0-1.42,5.35c-.09,1.63-.62,1.16-1.54.89a7.1,7.1,0,0,0-2.92-.28,9.49,9.49,0,0,0-2.13.53,37.83,37.83,0,0,1,1.43-9.22c.55-2-.33-2.57-1.62-2.61s-1.63-.94-2-1.71c-2.05-3.87-10.37-1.62-13.3,6.79a18.79,18.79,0,0,0-1,4.63c-2.71,6.69-8.55,4.76-7.52-3.62.23-1.9.7-3.81,1-5.22,0,0-3.57-2.12-4.75-.3a51.39,51.39,0,0,1-1.23,6.54c-2,7.28-6.56,8.42-9.63,4.41a18.79,18.79,0,0,0,1.19-2.51c2.7-6.93,3.68-15,3-20.62-1-8.16-6.27-8.3-8.67-4.43-3.42,5.53-3.88,18-1.47,24.61a26.15,26.15,0,0,0,1.09,2.57c-3.71,4.45-8.63,3.59-11.83-1.43a34.2,34.2,0,0,0,2.88-7.68c1.64-6.49,2-14.67.36-19.15-2.14-6-7-5.91-9.09-.36-2.35,6.12-2.35,17.53,0,24.56a25.36,25.36,0,0,0,1,2.7c-4.46,6.11-11,5.29-10.27-4.13.11-1.48.36-3,.5-4.28a4.81,4.81,0,0,0-4.61-.45c-.77,3.37-2,8.33-3.32,10.76s-3.94,2-3.48-5.82A26.82,26.82,0,0,1,50.58,21s-3.62-1.19-4.75-.31C42,28.89,33.66,36.1,24.53,36.7,10.34,38.05.91,23.81,7.63,12.71,13,3.79,26.09,4,30.92,11c.9,1.34-.35,2.19-1.19,3.57a7.22,7.22,0,0,0-.3,7.76c2.29,3.35,7.82,1.81,8-4.13C38,.9,17.61-3.77,7.2,5.1-6.36,16.4.05,39.55,19.59,41.28a28.27,28.27,0,0,0,25.14-11c-.24,9.53,5.51,11.65,9.11,8.77A11.64,11.64,0,0,0,57,34.37c2.16,6.5,9.87,7.78,15.75.83,2.56,3.39,5.68,4.7,8.72,4.69a11.53,11.53,0,0,0,8.09-3.46c4.92,5.53,11.39,3,13.66-1.74,2.22,5.84,8.66,6.76,11.91,1.91,1.64,2.81,5.07,3.23,8.35.54a28.62,28.62,0,0,0,3.09-3.26c0,.62,0,1.36.06,2.19A20.75,20.75,0,0,0,121.17,56c1.81,7,8.54,5,9.9-4.29.72-4.91,0-9.12-.22-13.79a5.53,5.53,0,0,1,2.33-.7c4-.25,5.22,2.74,8.86,2.83h0c2.4.13,5.28-1.39,7.48-4.88,1.13,4.35,5.47,5.7,9.15,3.1,2.58-1.83,4.64-5.36,5.94-8.08l.46-.94c-.06,2.77.07,7.16,1.34,9.36,1.48,2.57,4.63,2.78,7.53-3.47.95-2,1.92-4.41,2.68-6.19a38.4,38.4,0,0,0,.85,4.55c2.14,8,8.07,8.11,12.32,5.23A13,13,0,0,0,195,32.09c.65-2.07-.1-3.64-1.22-3.79M73.72,24.38c-.16.65-.35,1.28-.55,1.88q-.26-.92-.45-1.89c-1.18-5.83-1-12.92.46-17,.8-2.25,2-1.09,2.12,3.34a50.33,50.33,0,0,1-1.58,13.7m16.13,3.71a23.63,23.63,0,0,1-.5-2.81c-.67-5.55-.17-13.4,1-16,.57-1.24,1.87-1.09,1.77,4a60.87,60.87,0,0,1-1.41,12.19,26.87,26.87,0,0,1-.86,2.58m35.71-.4c-3.24,6.72-6.66,7.23-6.68,4,0-4.09,2.45-8.37,5.5-9.46,2.57-.88,3.29,1.09,1.18,5.46m1.34,23.44c-.6,4.1-1.67,4-2,2.88-.85-3.57.06-8.5,2.12-12.11a46.39,46.39,0,0,1-.17,9.23m18.34-17.46c-1.06,1-2,1.34-2.64,1.13s-.8-1.39-.59-2.8a11.63,11.63,0,0,1,4.29-7.56c1.12-.8,2.83-1.2,3.07,0,.43,2-1.58,6.83-4.13,9.27" style="transition-property: none;"></path><path class="cls-1-id35d7d7feb" d="M197.36,35.11a2.69,2.69,0,1,1-2.67,2.68,2.65,2.65,0,0,1,2.67-2.68Zm0,.41a2.28,2.28,0,0,0,0,4.55,2.28,2.28,0,0,0,0-4.55Zm-.5,3.84h-.48v-3a4.93,4.93,0,0,1,.85-.07,1.6,1.6,0,0,1,.93.22.78.78,0,0,1-.31,1.35v0c.26,0,.44.28.5.72a2.46,2.46,0,0,0,.19.75H198a2.4,2.4,0,0,1-.2-.77.58.58,0,0,0-.65-.53h-.33Zm0-1.66h.35c.39,0,.72-.15.72-.52s-.19-.52-.72-.52l-.35,0Z" style="transition-property: none;"></path><path class="cls-1-id35d7d7feb" d="M197.36,35.11a2.69,2.69,0,1,1-2.67,2.68,2.65,2.65,0,0,1,2.67-2.68Zm0,.41a2.28,2.28,0,0,0,0,4.55,2.28,2.28,0,0,0,0-4.55Zm-.5,3.84h-.48v-3a4.93,4.93,0,0,1,.85-.07,1.6,1.6,0,0,1,.93.22.78.78,0,0,1-.31,1.35v0c.26,0,.44.28.5.72a2.46,2.46,0,0,0,.19.75H198a2.4,2.4,0,0,1-.2-.77.58.58,0,0,0-.65-.53h-.33Zm0-1.66h.35c.39,0,.72-.15.72-.52s-.19-.52-.72-.52l-.35,0Z" style="transition-property: none;"></path></g></g><title id="titleid04f092e79">Culligan Logo</title></svg>