<svg xmlns="http://www.w3.org/2000/svg" viewBox="0 0 720 404" width="304" height="170" role="img" aria-labelledby="titleiddd47fefa0">
	<defs>
		<linearGradient class="cerosgradient" data-cerosgradient="true" id="CerosGradient_id81f50121b" gradientUnits="userSpaceOnUse" x1="50%" y1="100%" x2="50%" y2="0%">
			<stop offset="0%" stop-color="#d1d1d1" style="transition-property: none;">
			</stop>
			<stop offset="100%" stop-color="#d1d1d1" style="transition-property: none;">
			</stop>
		</linearGradient>
		<linearGradient>
		</linearGradient>
	</defs>
	<g id="Layer_1" data-name="Layer 1">
		<path fill="#6950c3" d="M441.85,259.28a6.44,6.44,0,1,0,6.43,6.43A6.43,6.43,0,0,0,441.85,259.28Z" style="transition-property: none;">
		</path>
		<path fill="#6950c3" d="M441.85,293.47a6.44,6.44,0,1,0,6.43,6.43A6.43,6.43,0,0,0,441.85,293.47Z" style="transition-property: none;">
		</path>
		<path fill="#a3e7fc" d="M488.61,70.92c15.89,18,19.25,42.26,9.22,66.66a6.19,6.19,0,0,1-.9,1.53,89.37,89.37,0,0,1-6,26.57c2,13.25,7,24.67,17.61,28.08,9,2.87,20.46,2.82,29.25-9.92a27.66,27.66,0,0,1-16.53-1.92A20.21,20.21,0,0,1,509.77,167a6.3,6.3,0,0,1,5.79-7.43,26,26,0,0,0,6.63-1.28,18.18,18.18,0,0,1-5.46-4.81c-6.69-8.86-3.89-21.75-.15-35.3,3.3-11.94,3.88-23.41,1.68-33.17C516,74.91,510,66,502.13,61.19c-8.21-5.07-15.67-5.09-24.43,0A61,61,0,0,1,488.61,70.92Z" style="transition-property: none;">
		</path>
		<path fill="#a3e7fc" d="M435.56,87.05c1.43-.13,2.84-.19,4.23-.19,22.47,0,39.7,16,50.07,33.71,3-15.43-.71-30-10.69-41.31a50.24,50.24,0,0,0-50.61-15c-15.69,4.29-25.47,15.57-29.09,33.51a79.58,79.58,0,0,0-1.41,11.84C406.85,98.52,418.91,88.52,435.56,87.05Z" style="transition-property: none;">
		</path>
		<path fill="#a3e7fc" d="M255.19,84.7a45.19,45.19,0,0,1,18.49-4.21h.18a48.78,48.78,0,0,1,9.82,1.27c4.34.88,8.86,1.58,13.27.78a16.81,16.81,0,0,0,3.77-1c1.08-.49,1.94-1.39,3-1.94a6.42,6.42,0,0,1,2.74-.7A6.27,6.27,0,0,1,312.9,85c.13,5.5,3.93,10.36,7.44,14.25a119.06,119.06,0,0,1,9.28,10.91c8.11,11.4,9.28,26.63,3.48,45.28a125.38,125.38,0,0,1-6.81,17c.46-.1.91-.17,1.35-.23,1-.13,2-.17,2.85-.2.51,0,1.22-.05,1.67-.11a16.33,16.33,0,0,0,.68-2.55c0-.15.07-.74.1-1.16.25-3.17.71-9.06,5.84-11.17a17.7,17.7,0,0,1,1.72-.59c0-.55,0-1.13,0-1.74,0-3.54-.09-8.89,4.81-13.09a31.65,31.65,0,0,1,3.26-2.34c.56-.35,1.37-.88,2.06-1.39a9.85,9.85,0,0,1-.76-.88c-1.51-1.94-4.4-7.26,1.2-14.66.95-1.26,1.95-2.39,2.92-3.49,1.79-2,3.48-3.93,3.8-5.59.44-2.26-1.26-4.9-4.1-9-3.05-4.38-6.5-9.34-6.66-15.72a27.6,27.6,0,0,1,1.42-8.46,26,26,0,0,0,.91-3.86c.44-3.89-.83-5.32-1.25-5.79-1.24-1.39-4.81-3.73-14.77-3.75-6.28,0-15.29-.81-20.9-7.44a27.23,27.23,0,0,1-4.26-7.69,31.1,31.1,0,0,0-1.48-3.27,12,12,0,0,0-16.17-3.71A33.52,33.52,0,0,0,287.7,47a25.76,25.76,0,0,1-8.05,5.49,23.12,23.12,0,0,1-10.81,1c-2.6-.26-5.1-.71-7.52-1.14a68,68,0,0,0-8.52-1.16c-4.6-.22-8.41.86-10.46,3-1.6,1.66-2.65,4.39-3.76,7.28-1.49,3.89-3.18,8.29-6.8,11.84-3.11,3.06-6.82,4.65-10.09,6.06-1.21.53-2.36,1-3.4,1.55-2.75,1.42-4.13,3.31-4,4.08a11.32,11.32,0,0,0,.42,1.42,16.27,16.27,0,0,1,1,5.43c0,3.81-1.85,7.27-5.43,10.28a13,13,0,0,1-1.19.88l.11.12c2.1,2.21,4.48,4.72,5,8.18.87,5.68-2.85,10.15-5.57,13.41-.53.64-1.09,1.31-1.55,1.93.42.33.9.67,1.25.92.6.43,1.22.88,1.82,1.36,3.17,2.58,4.65,5.47,4.41,8.57-.29,3.6-2.64,5.72-4.85,7.17l.67.25a16.14,16.14,0,0,1,6,3.32c3.38,3.27,4,8.15,4.44,11.72.11.84.21,1.64.32,2.23a4.87,4.87,0,0,0,1.86,3,11.26,11.26,0,0,0,1.93,1c-.34-1-.65-2-1-3-5.31-18.17-3.69-35.79,4.85-52.48a60.59,60.59,0,0,1,9-13.08A53.65,53.65,0,0,1,255.19,84.7Z" style="transition-property: none;">
		</path>
		<path fill="#6950c3" d="M561.23,280.3c-.07-15.37-11.11-18.88-18-23.65l-62.43-39.86c-7.64-9.84-6.89-23-6.6-26a63.5,63.5,0,0,0,7.8-9c5.39,14.81,14.4,21.28,22.64,23.91a43,43,0,0,0,12.91,2c12.32,0,29.06-5.69,38.45-33a6.3,6.3,0,0,0-9-7.57c-7.95,4.36-15.59,5.6-20.42,3.31-.19-.09-.37-.18-.54-.28A42.59,42.59,0,0,0,542.34,160,6.29,6.29,0,0,0,538,149.21c-4,0-9.18-.63-11.22-3.34-3.5-4.63,0-17.46,1.94-24.35,3.85-13.93,4.48-27.52,1.82-39.29-3-13.52-11-25.1-21.8-31.76-13.39-8.26-26.77-7.57-40.92,2.11a23.86,23.86,0,0,0-2.41,2,63,63,0,0,0-40.18-2.42c-20.36,5.58-33.54,20.51-38.1,43.18a100,100,0,0,0-.6,33.7c0,1-.06,2-.06,3,0,24.17,9.08,45.6,23,58.79.3,2.94,1.13,16-6.61,25.95l-5.15,3.29a24.55,24.55,0,0,1,9.55,13.53,79.45,79.45,0,0,0,72.18-1.52s52.63,32.9,57.89,36.2c5.49,3.45,11,5.31,11,13.94l.68,34.66a6.53,6.53,0,0,0,6.53,6.4h.14a6.53,6.53,0,0,0,6.4-6.66ZM502.13,61.19C510,66,516,74.91,518.26,85c2.2,9.76,1.62,21.23-1.68,33.17-3.74,13.55-6.54,26.44.15,35.3a18.18,18.18,0,0,0,5.46,4.81,26,26,0,0,1-6.63,1.28,6.3,6.3,0,0,0-5.79,7.43,20.21,20.21,0,0,0,11.45,14.93,27.66,27.66,0,0,0,16.53,1.92c-8.79,12.74-20.27,12.79-29.25,9.92-10.64-3.41-15.61-14.83-17.61-28.08a89.37,89.37,0,0,0,6-26.57,6.19,6.19,0,0,0,.9-1.53c10-24.4,6.67-48.7-9.22-66.66a61,61,0,0,0-10.91-9.69C486.46,56.1,493.92,56.12,502.13,61.19ZM399.47,97.82c3.62-17.94,13.4-29.22,29.09-33.51a50.24,50.24,0,0,1,50.61,15c10,11.28,13.65,25.88,10.69,41.31-10.37-17.67-27.6-33.71-50.07-33.71-1.39,0-2.8.06-4.23.19-16.65,1.47-28.71,11.47-37.5,22.61A79.58,79.58,0,0,1,399.47,97.82Zm-.4,34.23c0-.42,0-.84,0-1.26,11.58-20,23.55-29.95,37.57-31.19,23-2,40,19.23,47.61,38.06l.14.32a76.47,76.47,0,0,1-6.4,26c-7.59,16.79-21,28-36.16,28C418.26,192,399.07,165.1,399.07,132.05Zm42.78,96.87c-10.89,0-20.53-3.45-27.32-6.8A48.29,48.29,0,0,0,422,199.75a43.12,43.12,0,0,0,39.7,0,48.06,48.06,0,0,0,7.47,22.37C462.37,225.47,452.73,228.92,441.85,228.92Z" style="transition-property: none;">
		</path>
		<path fill="#6950c3" d="M297.1,244l16-10.3v.79a24.62,24.62,0,0,1,9.55-14.24l-5.54-3.53c-5.12-6.6-6.47-14.67-6.71-20.18a5.45,5.45,0,0,0,.58-.31s12.23-7.85,17.74-11.37a8.15,8.15,0,0,1,2.18-.22,17.12,17.12,0,0,0,6.95-1.38c5.52-2.59,6.72-8.51,7.3-11.35a22.93,22.93,0,0,0,.32-2.7c0-.29.05-.66.08-1,2.36-.63,6.32-2.26,7.28-8.62a29.86,29.86,0,0,0,.24-4.94c0-2.63.07-3.12.42-3.42a23.36,23.36,0,0,1,1.93-1.32c3.43-2.24,11.47-7.46,8-16.1a9.93,9.93,0,0,0-2.49-3.53l.2-.28c.66-.87,1.46-1.77,2.31-2.72,2.57-2.9,5.76-6.51,6.74-11.56,1.48-7.64-2.74-13.71-6.13-18.58-2.24-3.21-4.35-6.24-4.41-8.84a17.59,17.59,0,0,1,.94-4.69,35.3,35.3,0,0,0,1.31-5.9c.9-7.83-1.87-12.8-4.36-15.59-4.75-5.34-12.64-7.94-24.14-8-3.78,0-9.08-.33-11.32-3a17.2,17.2,0,0,1-2.22-4.34,43.6,43.6,0,0,0-2.15-4.66,24.54,24.54,0,0,0-34.34-7.87,42.08,42.08,0,0,0-4.08,3.36,16.17,16.17,0,0,1-4.15,3.1,11.87,11.87,0,0,1-5,.26c-2.13-.23-4.3-.61-6.6-1a78.11,78.11,0,0,0-10.13-1.35c-8.34-.4-15.49,2-20.12,6.82-3.38,3.5-5,7.76-6.46,11.52-1.13,2.95-2.2,5.73-3.86,7.36-1.43,1.41-3.77,2.42-6.25,3.48-1.36.59-2.76,1.19-4.18,1.92C205,73.57,200.92,80,201.77,86.61a19.27,19.27,0,0,0,1,3.79c.13.4.3.9.37,1.18a5.18,5.18,0,0,1-.85.86c-.14.1-.59.35-.89.51-1.77,1-4.74,2.56-6,6-2,5.66,2.2,10.14,4.74,12.81.43.45,1,1,1.42,1.54a31.62,31.62,0,0,1-2.52,3.32,29.48,29.48,0,0,0-4,5.72c-3.25,6.61,1.11,11.45,4.22,14a17.52,17.52,0,0,0-1.55,1.21,9.25,9.25,0,0,0-3.39,8.32c.76,5.59,6.52,8.41,9.29,9.77a23.58,23.58,0,0,0,2.57,1.05c.47.17,1.12.41,1.53.6a24.83,24.83,0,0,1,.77,4.19c.12,1,.25,2.05.44,3.05a17.42,17.42,0,0,0,7,10.93,32.13,32.13,0,0,0,8.2,3.79,25.38,25.38,0,0,1,5.1,2.17c1.4.91,3.51,2,6,3.31a78.09,78.09,0,0,1,7.06,4c.11.08.24.14.35.22,1.08.93,2.18,1.83,3.31,2.69.28,4.18.34,16-6.67,25l-62.43,39.85c-6.86,4.78-17.9,8.29-18,23.66L158,316.57a6.54,6.54,0,0,0,6.4,6.66h.14a6.53,6.53,0,0,0,6.53-6.41l.68-34.66c0-8.62,5.47-10.48,11-13.93,3.81-2.39,32.38-20.26,47.91-30V253.2a6.3,6.3,0,0,0,6.3,6.3,7,7,0,0,0,.79-.05l34.19-4.35v61.76a6.3,6.3,0,1,0,12.59,0V255.1l29.3,3.72a87.71,87.71,0,0,1-1.64-12.9ZM228.89,110.67c-8.54,16.69-10.16,34.31-4.85,52.48.3,1,.61,2,1,3a11.26,11.26,0,0,1-1.93-1,4.87,4.87,0,0,1-1.86-3c-.11-.59-.21-1.39-.32-2.23-.45-3.57-1.06-8.45-4.44-11.72a16.14,16.14,0,0,0-6-3.32l-.67-.25c2.21-1.45,4.56-3.57,4.85-7.17.24-3.1-1.24-6-4.41-8.57-.6-.48-1.22-.93-1.82-1.36-.35-.25-.83-.59-1.25-.92.46-.62,1-1.29,1.55-1.93,2.72-3.26,6.44-7.73,5.57-13.41-.54-3.46-2.92-6-5-8.18l-.11-.12a13,13,0,0,0,1.19-.88c3.58-3,5.4-6.47,5.43-10.28a16.27,16.27,0,0,0-1-5.43,11.32,11.32,0,0,1-.42-1.42c-.1-.77,1.28-2.66,4-4.08,1-.53,2.19-1,3.4-1.55,3.27-1.41,7-3,10.09-6.06,3.62-3.55,5.31-8,6.8-11.84,1.11-2.89,2.16-5.62,3.76-7.28,2-2.12,5.86-3.2,10.46-3a68,68,0,0,1,8.52,1.16c2.42.43,4.92.88,7.52,1.14a23.12,23.12,0,0,0,10.81-1A25.76,25.76,0,0,0,287.7,47a33.52,33.52,0,0,1,2.84-2.38,12,12,0,0,1,16.17,3.71,31.1,31.1,0,0,1,1.48,3.27,27.23,27.23,0,0,0,4.26,7.69c5.61,6.63,14.62,7.42,20.9,7.44,10,0,13.53,2.36,14.77,3.75.42.47,1.69,1.9,1.25,5.79a26,26,0,0,1-.91,3.86A27.6,27.6,0,0,0,347,88.58c.16,6.38,3.61,11.34,6.66,15.72,2.84,4.1,4.54,6.74,4.1,9-.32,1.66-2,3.57-3.8,5.59-1,1.1-2,2.23-2.92,3.49-5.6,7.4-2.71,12.72-1.2,14.66a9.85,9.85,0,0,0,.76.88c-.69.51-1.5,1-2.06,1.39a31.65,31.65,0,0,0-3.26,2.34c-4.9,4.2-4.85,9.55-4.81,13.09,0,.61,0,1.19,0,1.74a17.7,17.7,0,0,0-1.72.59c-5.13,2.11-5.59,8-5.84,11.17,0,.42-.08,1-.1,1.16a16.33,16.33,0,0,1-.68,2.55c-.45.06-1.16.09-1.67.11-.85,0-1.82.07-2.85.2-.44.06-.89.13-1.35.23a125.38,125.38,0,0,0,6.81-17c5.8-18.65,4.63-33.88-3.48-45.28a119.06,119.06,0,0,0-9.28-10.91C316.83,95.39,313,90.53,312.9,85a6.27,6.27,0,0,0-6.44-6.15,6.42,6.42,0,0,0-2.74.7c-1.06.55-1.92,1.45-3,1.94a16.81,16.81,0,0,1-3.77,1c-4.41.8-8.93.1-13.27-.78a48.78,48.78,0,0,0-9.82-1.27h-.18a45.19,45.19,0,0,0-18.49,4.21,53.65,53.65,0,0,0-17.3,12.89A60.59,60.59,0,0,0,228.89,110.67Zm71.42-25.34h0v0Zm-58,85A62.81,62.81,0,0,1,236,159.21a57,57,0,0,1,4.08-42.8c4.7-9.2,11.93-16.39,20.35-20.27a32.66,32.66,0,0,1,13.31-3.06,40.08,40.08,0,0,1,7.41,1A44.32,44.32,0,0,0,292,95.35a81.21,81.21,0,0,0,9-.95l1.1-.19c2.44,6.44,7.06,11.52,11.29,16.16a80.4,80.4,0,0,1,6,7.12c5.71,8,6.29,19.54,1.72,34.23a120.18,120.18,0,0,1-7.85,18.76c-.41.81-.93,1.74-1.52,2.73-8.67,10.54-20.51,17.06-33.56,17.06-10.34,0-19.93-4.11-27.79-11.07A54.38,54.38,0,0,1,242.34,170.3Zm.84,75.75V233.71l16,10.3Zm35-5.64-27.55-18c5.43-8,7.26-16.82,7.77-23.52a51.17,51.17,0,0,0,39.57,0,48.35,48.35,0,0,0,7.76,23.52Z" style="transition-property: none;">
		</path>
		<path fill="#a3e7fc" d="M397.71,220.08c-7.29-5.24-19-8.52-37.4-8.52-18.58,0-30.36,3.35-37.63,8.7a24.62,24.62,0,0,0-9.55,14.24,39.88,39.88,0,0,0-1,11.42,87.71,87.71,0,0,0,1.64,12.9c1.24,6.52,2.86,12.83,3.74,18.26C319.44,253,337.9,234,360.31,234s40.87,19,42.83,43.08c2-12.57,8.05-29.82,4.12-43.47A24.55,24.55,0,0,0,397.71,220.08Z" style="transition-property: none;">
		</path>
		<path fill="#6950c3" d="M360.31,234c-22.41,0-40.87,19-42.82,43.08-.11,1.39-.18,2.8-.18,4.23,0,15.94,7.21,30.06,18.23,38.63,0,4.91-.94,11.87-3.05,14.23-9.24,3.71-27.56,11.14-33.49,14l-.19.1c-8.17,4.36-8.15,10.64-8.14,17.92v1.18a6.3,6.3,0,1,0,12.6,0V366.2c0-2.39,0-5.38.33-6a3.7,3.7,0,0,1,1-.72c6.06-2.94,26.27-11.1,34.43-14.37,4.13,3.06,11.81,7.56,21.24,7.56s17.1-4.5,21.23-7.56c8.16,3.27,28.37,11.43,34.43,14.37a3.67,3.67,0,0,1,1,.72c.35.63.35,3.62.34,6v1.21a6.3,6.3,0,1,0,12.6,0v-1.18c0-7.28,0-13.56-8.14-17.92l-.2-.1c-5.92-2.9-24.25-10.33-33.48-14-1.94-2.21-3.09-8.78-3.05-14.23l.74-.61a46.57,46.57,0,0,0,12.24-15.42,50.72,50.72,0,0,0,5.25-22.6c0-1.43-.07-2.84-.18-4.23C401.18,253,382.73,234,360.31,234Zm0,106.06c-6.33,0-11.71-3.49-14.19-5.42a41.69,41.69,0,0,0,1.66-8.07,39.29,39.29,0,0,0,25,0,41.69,41.69,0,0,0,1.66,8.07C372,336.58,366.64,340.06,360.32,340.06ZM385,301.58c-5.53,8.74-14.52,14.44-24.67,14.44-16.76,0-30.41-15.57-30.41-34.71,0-13.14,6.44-24.6,15.9-30.5a27.1,27.1,0,0,1,28.76-.16,32.07,32.07,0,0,1,9.19,8.56A38.59,38.59,0,0,1,385,301.58Z" style="transition-property: none;">
		</path>
	</g>
	<g id="Bounding_Box" data-name="Bounding Box">
		<rect fill="none" width="720" height="404" style="transition-property: none;">
		</rect>
	</g>
	<title id="titleiddd47fefa0">
		Purple and blue icon showing a family with two parents and a small child.
	</title>
</svg>
