<svg viewBox="0 0 473 246" xmlns="http://www.w3.org/2000/svg" class="jsx-2941984696 -relative logo-large logo-svg"><title class="jsx-2941984696">Surest logo</title><g class="jsx-2941984696"><g class="jsx-2941984696"><path d="M141.36,21.25c0-1.06,.83-1.75,1.88-1.75s1.88,.69,1.88,1.75-.83,1.75-1.88,1.75-1.88-.73-1.88-1.75Zm.5,5.05h2.71v16.04h-2.71V26.3Z" class="jsx-2941984696 cls-1"></path><path d="M147.99,40.53l1.35-1.81c1.39,1.12,2.81,1.91,4.72,1.91,2.11,0,3.17-1.12,3.17-2.51,0-1.65-1.92-2.38-3.66-3.04-2.28-.83-4.79-1.91-4.79-4.62s2.05-4.55,5.51-4.55c2.01,0,3.76,.83,4.98,1.82l-1.29,1.72c-1.09-.83-2.24-1.42-3.66-1.42-2.01,0-2.94,1.09-2.94,2.31,0,1.52,1.75,2.08,3.56,2.77,2.31,.86,4.88,1.82,4.88,4.85,0,2.61-2.08,4.79-5.88,4.79-2.28,0-4.46-.96-5.97-2.21Z" class="jsx-2941984696 cls-1"></path><path d="M169.8,26.3h2.24l.23,2.31h.1c1.52-1.52,3.17-2.71,5.38-2.71,3.37,0,4.88,2.18,4.88,6.27v10.17h-2.71v-9.8c0-3-.92-4.29-3.04-4.29-1.65,0-2.77,.86-4.39,2.48v11.62h-2.71V26.3Z" class="jsx-2941984696 cls-1"></path><path d="M186.47,34.35c0-5.38,3.5-8.45,7.43-8.45s7.43,3.07,7.43,8.45-3.5,8.38-7.43,8.38-7.43-3.07-7.43-8.38Zm12.05,0c0-3.7-1.85-6.2-4.62-6.2s-4.62,2.51-4.62,6.2,1.88,6.14,4.62,6.14,4.62-2.48,4.62-6.14Z" class="jsx-2941984696 cls-1"></path><path d="M203.3,26.3h2.77l2.38,9.27c.36,1.52,.66,2.97,.96,4.46h.13c.36-1.48,.69-2.97,1.09-4.46l2.48-9.27h2.64l2.51,9.27c.4,1.52,.76,2.97,1.12,4.46h.13c.36-1.48,.66-2.94,.99-4.46l2.34-9.27h2.57l-4.29,16.04h-3.3l-2.31-8.61c-.4-1.52-.69-3-1.09-4.62h-.13c-.36,1.62-.69,3.13-1.12,4.65l-2.25,8.58h-3.17l-4.46-16.04Z" class="jsx-2941984696 cls-1"></path><path d="M233.79,39.54l1.65-1.92c1.55,1.62,3.73,2.71,5.97,2.71,2.84,0,4.52-1.42,4.52-3.53s-1.55-2.9-3.6-3.83l-3.1-1.35c-2.05-.86-4.39-2.41-4.39-5.58s2.87-5.74,6.8-5.74c2.58,0,4.85,1.09,6.4,2.67l-1.49,1.78c-1.32-1.25-2.9-2.05-4.92-2.05-2.41,0-4.03,1.22-4.03,3.17,0,2.08,1.88,2.87,3.6,3.6l3.07,1.32c2.51,1.09,4.46,2.57,4.46,5.78,0,3.43-2.81,6.17-7.36,6.17-3.04,0-5.71-1.25-7.59-3.2Z" class="jsx-2941984696 cls-1"></path><path d="M252.3,36.47v-10.17h2.74v9.8c0,3,.89,4.29,3,4.29,1.65,0,2.8-.83,4.32-2.71v-11.39h2.71v16.04h-2.24l-.23-2.51h-.1c-1.49,1.75-3.07,2.9-5.28,2.9-3.4,0-4.92-2.18-4.92-6.27Z" class="jsx-2941984696 cls-1"></path><path d="M270.29,26.3h2.24l.23,2.9h.1c1.09-2.01,2.74-3.3,4.55-3.3,.69,0,1.19,.1,1.72,.33l-.53,2.38c-.53-.17-.89-.26-1.55-.26-1.35,0-2.97,.99-4.06,3.7v10.3h-2.71V26.3Z" class="jsx-2941984696 cls-1"></path><path d="M280.02,34.35c0-5.25,3.53-8.45,7.2-8.45,4.09,0,6.4,2.94,6.4,7.53,0,.56-.03,1.16-.1,1.55h-10.83c.2,3.4,2.28,5.58,5.35,5.58,1.52,0,2.81-.5,3.99-1.25l.96,1.78c-1.39,.89-3.1,1.65-5.28,1.65-4.29,0-7.69-3.14-7.69-8.38Zm11.22-1.32c0-3.24-1.45-4.98-3.96-4.98-2.24,0-4.29,1.82-4.62,4.98h8.58Z" class="jsx-2941984696 cls-1"></path><path d="M295.6,40.53l1.35-1.81c1.39,1.12,2.8,1.91,4.72,1.91,2.11,0,3.17-1.12,3.17-2.51,0-1.65-1.91-2.38-3.66-3.04-2.28-.83-4.79-1.91-4.79-4.62s2.05-4.55,5.51-4.55c2.01,0,3.76,.83,4.98,1.82l-1.29,1.72c-1.09-.83-2.25-1.42-3.66-1.42-2.01,0-2.94,1.09-2.94,2.31,0,1.52,1.75,2.08,3.56,2.77,2.31,.86,4.88,1.82,4.88,4.85,0,2.61-2.08,4.79-5.88,4.79-2.28,0-4.46-.96-5.97-2.21Z" class="jsx-2941984696 cls-1"></path><path d="M310.81,37.39v-8.88h-2.38v-2.05l2.51-.17,.33-4.49h2.28v4.49h4.32v2.21h-4.32v8.91c0,1.98,.63,3.1,2.48,3.1,.56,0,1.29-.23,1.82-.43l.53,2.05c-.89,.3-1.98,.59-2.97,.59-3.43,0-4.59-2.18-4.59-5.35Z" class="jsx-2941984696 cls-1"></path><path d="M320.98,40.69c0-1.25,.89-2.11,1.98-2.11s1.95,.86,1.95,2.11c0,1.19-.89,2.05-1.95,2.05s-1.98-.86-1.98-2.05Z" class="jsx-2941984696 cls-1"></path><path d="M334.64,39.54l1.65-1.92c1.55,1.62,3.73,2.71,5.97,2.71,2.84,0,4.52-1.42,4.52-3.53s-1.55-2.9-3.6-3.83l-3.1-1.35c-2.05-.86-4.39-2.41-4.39-5.58s2.87-5.74,6.8-5.74c2.57,0,4.85,1.09,6.4,2.67l-1.48,1.78c-1.32-1.25-2.91-2.05-4.92-2.05-2.41,0-4.03,1.22-4.03,3.17,0,2.08,1.88,2.87,3.6,3.6l3.07,1.32c2.51,1.09,4.46,2.57,4.46,5.78,0,3.43-2.81,6.17-7.36,6.17-3.04,0-5.71-1.25-7.59-3.2Z" class="jsx-2941984696 cls-1"></path><path d="M352.39,38.18c0-3.5,3-5.25,9.84-6.01,0-2.05-.66-4.03-3.3-4.03-1.85,0-3.53,.86-4.79,1.72l-1.06-1.88c1.49-.96,3.73-2.08,6.3-2.08,3.93,0,5.58,2.61,5.58,6.6v9.83h-2.24l-.23-1.91h-.1c-1.52,1.25-3.3,2.31-5.31,2.31-2.67,0-4.69-1.68-4.69-4.55Zm9.84,.23v-4.46c-5.35,.66-7.2,1.98-7.2,4.03,0,1.82,1.25,2.57,2.84,2.57s2.81-.76,4.36-2.15Z" class="jsx-2941984696 cls-1"></path><path d="M369.82,26.3h2.24l.23,2.31h.1c1.39-1.52,3.07-2.71,4.98-2.71,2.44,0,3.76,1.16,4.42,3.07,1.68-1.82,3.33-3.07,5.28-3.07,3.3,0,4.88,2.18,4.88,6.27v10.17h-2.71v-9.8c0-3-.96-4.29-2.97-4.29-1.25,0-2.54,.83-4.03,2.48v11.62h-2.71v-9.8c0-3-.96-4.29-3-4.29-1.19,0-2.54,.83-4.03,2.48v11.62h-2.71V26.3Z" class="jsx-2941984696 cls-1"></path><path d="M395.79,34.35c0-5.25,3.53-8.45,7.2-8.45,4.09,0,6.4,2.94,6.4,7.53,0,.56-.03,1.16-.1,1.55h-10.83c.2,3.4,2.28,5.58,5.35,5.58,1.52,0,2.81-.5,3.99-1.25l.96,1.78c-1.39,.89-3.1,1.65-5.28,1.65-4.29,0-7.69-3.14-7.69-8.38Zm11.22-1.32c0-3.24-1.45-4.98-3.96-4.98-2.24,0-4.29,1.82-4.62,4.98h8.58Z" class="jsx-2941984696 cls-1"></path><path d="M40.43,81.41c0-1.35,.89-2.64,2.34-3.63v-.13c-.79-.5-1.42-1.35-1.42-2.61,0-1.35,.92-2.41,1.75-2.97v-.13c-1.06-.86-2.08-2.41-2.08-4.32,0-3.5,2.77-5.71,6.04-5.71,.89,0,1.68,.17,2.28,.4h5.58v2.08h-3.3c.76,.73,1.32,1.95,1.32,3.3,0,3.43-2.61,5.58-5.88,5.58-.79,0-1.68-.2-2.41-.56-.56,.5-1.02,1.02-1.02,1.91,0,1.02,.66,1.75,2.84,1.75h3.1c3.73,0,5.61,1.16,5.61,3.83,0,2.97-3.13,5.54-8.12,5.54-3.93,0-6.63-1.55-6.63-4.32Zm12.11-.83c0-1.48-1.16-1.98-3.24-1.98h-2.77c-.63,0-1.39-.07-2.08-.26-1.16,.83-1.65,1.78-1.65,2.71,0,1.72,1.75,2.8,4.65,2.8,3.07,0,5.08-1.58,5.08-3.27Zm-2.08-12.97c0-2.34-1.52-3.73-3.4-3.73s-3.4,1.39-3.4,3.73,1.55,3.83,3.4,3.83,3.4-1.49,3.4-3.83Z" class="jsx-2941984696 cls-1"></path><path d="M58.09,62.3h2.24l.23,2.9h.1c1.09-2.01,2.74-3.3,4.55-3.3,.69,0,1.19,.1,1.72,.33l-.53,2.38c-.53-.17-.89-.26-1.55-.26-1.35,0-2.97,.99-4.06,3.7v10.3h-2.71v-16.04Z" class="jsx-2941984696 cls-1"></path><path d="M67.82,70.35c0-5.25,3.53-8.45,7.2-8.45,4.09,0,6.4,2.94,6.4,7.53,0,.56-.03,1.16-.1,1.55h-10.83c.2,3.4,2.28,5.58,5.35,5.58,1.52,0,2.8-.5,3.99-1.25l.96,1.78c-1.39,.89-3.1,1.65-5.28,1.65-4.29,0-7.69-3.14-7.69-8.38Zm11.22-1.32c0-3.24-1.45-4.98-3.96-4.98-2.24,0-4.29,1.82-4.62,4.98h8.58Z" class="jsx-2941984696 cls-1"></path><path d="M83.73,74.18c0-3.5,3-5.25,9.83-6.01,0-2.05-.66-4.03-3.3-4.03-1.85,0-3.53,.86-4.79,1.72l-1.06-1.88c1.49-.96,3.73-2.08,6.3-2.08,3.93,0,5.58,2.61,5.58,6.6v9.83h-2.24l-.23-1.91h-.1c-1.52,1.25-3.3,2.31-5.31,2.31-2.67,0-4.69-1.68-4.69-4.55Zm9.83,.23v-4.46c-5.35,.66-7.2,1.98-7.2,4.03,0,1.82,1.25,2.57,2.84,2.57s2.81-.76,4.36-2.15Z" class="jsx-2941984696 cls-1"></path><path d="M101.15,73.39v-8.88h-2.38v-2.05l2.51-.17,.33-4.49h2.28v4.49h4.32v2.21h-4.32v8.91c0,1.98,.63,3.1,2.48,3.1,.56,0,1.29-.23,1.82-.43l.53,2.05c-.89,.3-1.98,.59-2.97,.59-3.43,0-4.59-2.18-4.59-5.35Z" class="jsx-2941984696 cls-1"></path><path d="M118.05,54.84h2.71v6.4l-.1,3.3c1.52-1.45,3.13-2.64,5.35-2.64,3.37,0,4.88,2.18,4.88,6.27v10.17h-2.71v-9.8c0-3-.92-4.29-3.04-4.29-1.65,0-2.77,.86-4.39,2.48v11.62h-2.71v-23.5Z" class="jsx-2941984696 cls-1"></path><path d="M134.61,70.35c0-5.25,3.53-8.45,7.2-8.45,4.09,0,6.4,2.94,6.4,7.53,0,.56-.03,1.16-.1,1.55h-10.83c.2,3.4,2.28,5.58,5.35,5.58,1.52,0,2.81-.5,3.99-1.25l.96,1.78c-1.39,.89-3.1,1.65-5.28,1.65-4.29,0-7.69-3.14-7.69-8.38Zm11.22-1.32c0-3.24-1.45-4.98-3.96-4.98-2.24,0-4.29,1.82-4.62,4.98h8.58Z" class="jsx-2941984696 cls-1"></path><path d="M150.52,74.18c0-3.5,3-5.25,9.84-6.01,0-2.05-.66-4.03-3.3-4.03-1.85,0-3.53,.86-4.79,1.72l-1.06-1.88c1.49-.96,3.73-2.08,6.3-2.08,3.93,0,5.58,2.61,5.58,6.6v9.83h-2.24l-.23-1.91h-.1c-1.52,1.25-3.3,2.31-5.31,2.31-2.67,0-4.69-1.68-4.69-4.55Zm9.84,.23v-4.46c-5.35,.66-7.2,1.98-7.2,4.03,0,1.82,1.25,2.57,2.84,2.57s2.81-.76,4.36-2.15Z" class="jsx-2941984696 cls-1"></path><path d="M167.94,75.11v-20.26h2.71v20.46c0,.86,.36,1.19,.76,1.19,.17,0,.3,0,.59-.07l.36,2.05c-.36,.17-.83,.26-1.55,.26-2.05,0-2.87-1.29-2.87-3.63Z" class="jsx-2941984696 cls-1"></path><path d="M176.62,73.39v-8.88h-2.38v-2.05l2.51-.17,.33-4.49h2.28v4.49h4.32v2.21h-4.32v8.91c0,1.98,.63,3.1,2.48,3.1,.56,0,1.29-.23,1.82-.43l.53,2.05c-.89,.3-1.98,.59-2.97,.59-3.43,0-4.59-2.18-4.59-5.35Z" class="jsx-2941984696 cls-1"></path><path d="M187.11,54.84h2.71v6.4l-.1,3.3c1.52-1.45,3.14-2.64,5.35-2.64,3.37,0,4.88,2.18,4.88,6.27v10.17h-2.71v-9.8c0-3-.92-4.29-3.04-4.29-1.65,0-2.77,.86-4.39,2.48v11.62h-2.71v-23.5Z" class="jsx-2941984696 cls-1"></path><path d="M211.27,62.3h2.24l.23,1.85h.1c1.45-1.22,3.23-2.25,5.12-2.25,4.13,0,6.34,3.2,6.34,8.19,0,5.45-3.27,8.65-6.93,8.65-1.49,0-2.97-.69-4.46-1.85l.07,2.81v5.41h-2.71v-22.81Zm11.22,7.79c0-3.53-1.19-5.91-4.22-5.91-1.35,0-2.71,.76-4.29,2.18v8.42c1.45,1.22,2.87,1.68,3.93,1.68,2.64,0,4.59-2.41,4.59-6.37Z" class="jsx-2941984696 cls-1"></path><path d="M229.39,75.11v-20.26h2.71v20.46c0,.86,.36,1.19,.76,1.19,.17,0,.3,0,.59-.07l.36,2.05c-.36,.17-.83,.26-1.55,.26-2.05,0-2.87-1.29-2.87-3.63Z" class="jsx-2941984696 cls-1"></path><path d="M236.61,74.18c0-3.5,3-5.25,9.84-6.01,0-2.05-.66-4.03-3.3-4.03-1.85,0-3.53,.86-4.79,1.72l-1.06-1.88c1.49-.96,3.73-2.08,6.3-2.08,3.93,0,5.58,2.61,5.58,6.6v9.83h-2.24l-.23-1.91h-.1c-1.52,1.25-3.3,2.31-5.31,2.31-2.67,0-4.69-1.68-4.69-4.55Zm9.84,.23v-4.46c-5.35,.66-7.2,1.98-7.2,4.03,0,1.82,1.25,2.57,2.84,2.57s2.81-.76,4.36-2.15Z" class="jsx-2941984696 cls-1"></path><path d="M254.04,62.3h2.24l.23,2.31h.1c1.52-1.52,3.17-2.71,5.38-2.71,3.37,0,4.88,2.18,4.88,6.27v10.17h-2.71v-9.8c0-3-.92-4.29-3.04-4.29-1.65,0-2.77,.86-4.39,2.48v11.62h-2.71v-16.04Z" class="jsx-2941984696 cls-1"></path><path d="M271.33,76.69c0-1.25,.89-2.11,1.98-2.11s1.95,.86,1.95,2.11c0,1.19-.89,2.05-1.95,2.05s-1.98-.86-1.98-2.05Z" class="jsx-2941984696 cls-1"></path><path d="M286.57,56.69h2.84l7.82,13.6,2.34,4.49h.13c-.13-2.18-.33-4.62-.33-6.9v-11.19h2.61v21.65h-2.84l-7.86-13.63-2.34-4.46h-.13c.17,2.18,.36,4.49,.36,6.77v11.32h-2.61v-21.65Z" class="jsx-2941984696 cls-1"></path><path d="M306.27,70.35c0-5.25,3.53-8.45,7.2-8.45,4.09,0,6.4,2.94,6.4,7.53,0,.56-.03,1.16-.1,1.55h-10.83c.2,3.4,2.28,5.58,5.35,5.58,1.52,0,2.8-.5,3.99-1.25l.96,1.78c-1.39,.89-3.1,1.65-5.28,1.65-4.29,0-7.69-3.14-7.69-8.38Zm11.22-1.32c0-3.24-1.45-4.98-3.96-4.98-2.24,0-4.29,1.82-4.62,4.98h8.58Z" class="jsx-2941984696 cls-1"></path><path d="M321.88,62.3h2.77l2.38,9.27c.36,1.52,.66,2.97,.96,4.46h.13c.36-1.48,.69-2.97,1.09-4.46l2.48-9.27h2.64l2.51,9.27c.4,1.52,.76,2.97,1.12,4.46h.13c.36-1.48,.66-2.94,.99-4.46l2.34-9.27h2.57l-4.29,16.04h-3.3l-2.31-8.61c-.4-1.52-.69-3-1.09-4.62h-.13c-.36,1.62-.69,3.13-1.12,4.65l-2.24,8.58h-3.17l-4.46-16.04Z" class="jsx-2941984696 cls-1"></path><path d="M353.69,62.3h2.24l.23,2.31h.1c1.52-1.52,3.17-2.71,5.38-2.71,3.37,0,4.88,2.18,4.88,6.27v10.17h-2.71v-9.8c0-3-.92-4.29-3.04-4.29-1.65,0-2.77,.86-4.39,2.48v11.62h-2.71v-16.04Z" class="jsx-2941984696 cls-1"></path><path d="M370.56,74.18c0-3.5,3-5.25,9.84-6.01,0-2.05-.66-4.03-3.3-4.03-1.85,0-3.53,.86-4.79,1.72l-1.06-1.88c1.49-.96,3.73-2.08,6.3-2.08,3.93,0,5.58,2.61,5.58,6.6v9.83h-2.24l-.23-1.91h-.1c-1.52,1.25-3.3,2.31-5.31,2.31-2.67,0-4.69-1.68-4.69-4.55Zm9.84,.23v-4.46c-5.35,.66-7.2,1.98-7.2,4.03,0,1.82,1.25,2.57,2.84,2.57s2.81-.76,4.36-2.15Z" class="jsx-2941984696 cls-1"></path><path d="M387.98,62.3h2.24l.23,2.31h.1c1.39-1.52,3.07-2.71,4.98-2.71,2.44,0,3.76,1.16,4.42,3.07,1.68-1.82,3.33-3.07,5.28-3.07,3.3,0,4.88,2.18,4.88,6.27v10.17h-2.71v-9.8c0-3-.96-4.29-2.97-4.29-1.25,0-2.54,.83-4.03,2.48v11.62h-2.71v-9.8c0-3-.96-4.29-3-4.29-1.19,0-2.54,.83-4.03,2.48v11.62h-2.71v-16.04Z" class="jsx-2941984696 cls-1"></path><path d="M413.95,70.35c0-5.25,3.53-8.45,7.2-8.45,4.09,0,6.4,2.94,6.4,7.53,0,.56-.03,1.16-.1,1.55h-10.83c.2,3.4,2.28,5.58,5.35,5.58,1.52,0,2.81-.5,3.99-1.25l.96,1.78c-1.39,.89-3.1,1.65-5.28,1.65-4.29,0-7.69-3.14-7.69-8.38Zm11.22-1.32c0-3.24-1.45-4.98-3.96-4.98-2.24,0-4.29,1.82-4.62,4.98h8.58Z" class="jsx-2941984696 cls-1"></path><path d="M430.75,76.69c0-1.25,.89-2.11,1.98-2.11s1.95,.86,1.95,2.11c0,1.19-.89,2.05-1.95,2.05s-1.98-.86-1.98-2.05Z" class="jsx-2941984696 cls-1"></path></g><g class="jsx-2941984696"><path d="M107.33,33v-.07c0-6.7,4.38-10.37,9.14-10.37,3.03,0,4.91,1.39,6.25,3V15.67h5.69v27.34h-5.69v-2.88c-1.39,1.87-3.29,3.26-6.25,3.26-4.68,0-9.14-3.67-9.14-10.37Zm15.47,0v-.07c0-3.33-2.21-5.54-4.87-5.54s-4.91,2.17-4.91,5.54v.07c0,3.33,2.25,5.54,4.91,5.54s4.87-2.21,4.87-5.54Z" class="jsx-2941984696 cls-1"></path><path d="M60.45,40.38v2.62h-5.69V15.67h5.69v10.15c1.39-1.87,3.3-3.26,6.25-3.26,4.68,0,9.14,3.67,9.14,10.37v.07c0,6.7-4.38,10.37-9.14,10.37-3.03,0-4.91-1.39-6.25-3Zm9.7-7.38v-.07c0-3.33-2.25-5.54-4.91-5.54s-4.87,2.21-4.87,5.54v.07c0,3.33,2.21,5.54,4.87,5.54s4.91-2.17,4.91-5.54Z" class="jsx-2941984696 cls-1"></path><path d="M86.93,22.93h5.69v2.85c1.31-1.69,3-3.22,5.88-3.22,4.31,0,6.82,2.85,6.82,7.45v13h-5.69v-11.2c0-2.7-1.27-4.08-3.45-4.08s-3.56,1.39-3.56,4.08v11.2h-5.69V22.93Z" class="jsx-2941984696 cls-1"></path><g class="jsx-2941984696"><path d="M78.07,22.93h5.69v20.07h-5.69V22.93Z" class="jsx-2941984696 cls-1"></path><circle cx="80.92" cy="18.51" r="2.85" class="jsx-2941984696 cls-1"></circle></g></g></g><g class="jsx-2941984696"><g class="jsx-2941984696"><path d="M52.61,229.7h-3.06l-2.36-6.46h-8.81l-2.39,6.46h-2.93l8.25-21.07h3.12l8.19,21.07Zm-8.31-14.27c-1.01-2.74-1.17-3.21-1.48-4.25-.31,.85-.41,1.17-.63,1.76-.12,.28-.57,1.45-.88,2.36l-2.11,5.7h7.18l-2.08-5.57Z" class="jsx-2941984696 cls-1"></path><path d="M79.71,220.95c0,3.47-.28,4.69-1.45,6.33-1.39,1.99-3.63,2.9-6.93,2.9-3.62,0-5.92-1.04-7.34-3.27-.91-1.42-1.19-2.9-1.19-5.98v-12.22h2.77v12.28c0,2.68,.13,3.5,.76,4.6,.82,1.48,2.59,2.23,5.04,2.23s4.03-.72,4.79-2.08c.6-1.07,.79-2.11,.79-4.76v-12.28h2.77v12.25Z" class="jsx-2941984696 cls-1"></path><path d="M86.34,216.85c1.33-1.95,2.93-2.8,5.29-2.8,2.02,0,3.62,.82,4.38,2.2,.47,.88,.63,1.76,.63,3.62v9.83h-2.49v-8.94c0-2.02-.12-2.74-.5-3.34-.54-.79-1.55-1.26-2.8-1.26-1.73,0-3.18,.88-3.81,2.3-.41,.88-.53,1.86-.53,3.87v7.37h-2.49v-15.21h2.33v2.36Z" class="jsx-2941984696 cls-1"></path><path d="M103.93,210.37c0,.98-.79,1.79-1.73,1.79-.88,0-1.67-.82-1.67-1.79s.78-1.79,1.7-1.79,1.7,.82,1.7,1.79Zm-.47,19.34h-2.49v-15.21h2.49v15.21Z" class="jsx-2941984696 cls-1"></path><path d="M113.67,216.54h-3.06v8.98c0,2.02,.26,2.36,1.7,2.36,.47,0,.82-.06,1.35-.19v2.14c-.73,.1-1.23,.13-1.95,.13-1.67,0-2.64-.38-3.15-1.19-.41-.63-.44-1.1-.44-4.63v-7.59h-2.55v-2.05h2.55v-4.53h2.49v4.53h3.06v2.05Z" class="jsx-2941984696 cls-1"></path><path d="M129.1,224.82c-.82,3.56-3.02,5.32-6.64,5.32-4.47,0-7.21-3.05-7.21-7.97s2.96-8.13,7.12-8.13c2.77,0,5.1,1.48,6.17,3.97,.53,1.23,.75,2.61,.73,4.69h-11.43c.09,3.56,1.7,5.32,4.78,5.32,2.11,0,3.31-.94,4.03-3.21h2.46Zm-2.43-4.16c-.22-2.83-1.86-4.53-4.38-4.53s-4.06,1.57-4.44,4.53h8.82Z" class="jsx-2941984696 cls-1"></path><path d="M146,229.7h-2.36v-2.24c-.79,1.67-2.65,2.68-4.98,2.68-4.31,0-7.02-3.12-7.02-8.06,0-2.52,.63-4.44,1.89-5.86,1.23-1.39,3.02-2.17,4.94-2.17,2.33,0,4.13,.91,5.04,2.55v-7.9h2.49v21.01Zm-11.81-7.68c0,3.65,1.86,6.01,4.72,6.01s4.66-2.2,4.66-5.89c0-2.11-.44-3.56-1.42-4.6-.82-.88-2.02-1.38-3.24-1.38-2.93,0-4.72,2.23-4.72,5.86Z" class="jsx-2941984696 cls-1"></path><path d="M167.27,229.7h-2.77v-9.83h-11.09v9.83h-2.77v-21.01h2.77v8.76h11.09v-8.76h2.77v21.01Z" class="jsx-2941984696 cls-1"></path><path d="M184.8,224.82c-.82,3.56-3.02,5.32-6.64,5.32-4.47,0-7.21-3.05-7.21-7.97s2.96-8.13,7.12-8.13c2.77,0,5.1,1.48,6.17,3.97,.53,1.23,.75,2.61,.73,4.69h-11.43c.09,3.56,1.7,5.32,4.78,5.32,2.11,0,3.31-.94,4.03-3.21h2.46Zm-2.43-4.16c-.22-2.83-1.86-4.53-4.38-4.53s-4.06,1.57-4.44,4.53h8.82Z" class="jsx-2941984696 cls-1"></path><path d="M201.41,229.64c-.47,.28-1.07,.41-1.83,.41-1.39,0-2.05-.73-2.11-2.36-1.35,1.61-3.06,2.36-5.29,2.36-3.18,0-5.07-1.58-5.07-4.25,0-1.64,.69-2.96,1.89-3.68,1.07-.6,2.55-.98,5.58-1.42,2.2-.28,2.8-.69,2.8-1.92,0-1.67-1.07-2.42-3.43-2.42-2.49,0-3.5,.79-3.75,2.86h-2.49c.16-1.83,.57-2.77,1.67-3.68,1.1-.94,2.68-1.38,4.85-1.38,3.75,0,5.64,1.35,5.64,4.06v8.79c0,.57,.25,.85,.76,.85,.28,0,.6-.06,.79-.16v1.95Zm-4.06-7.78c-.06,.03-.16,.06-.16,.06l-.25,.16c-.38,.19-.85,.32-1.35,.38l-2.58,.38c-2.18,.31-3.25,1.2-3.25,2.74s1.04,2.27,2.99,2.27c2.59,0,4.6-1.48,4.6-3.4v-2.58Z" class="jsx-2941984696 cls-1"></path><path d="M206.77,229.7h-2.49v-21.01h2.49v21.01Z" class="jsx-2941984696 cls-1"></path><path d="M216.98,216.54h-3.06v8.98c0,2.02,.26,2.36,1.7,2.36,.47,0,.82-.06,1.35-.19v2.14c-.73,.1-1.23,.13-1.95,.13-1.67,0-2.64-.38-3.15-1.19-.41-.63-.44-1.1-.44-4.63v-7.59h-2.55v-2.05h2.55v-4.53h2.49v4.53h3.06v2.05Z" class="jsx-2941984696 cls-1"></path><path d="M222.35,214.87c0,.06,0,.44-.03,.82l-.03,.98c1.17-1.73,2.84-2.62,5.1-2.62s3.75,.79,4.54,2.27c.41,.82,.57,1.76,.57,3.5v9.89h-2.49v-9.57c0-1.48-.12-2.2-.5-2.74-.54-.79-1.55-1.23-2.84-1.23-1.76,0-3.18,.88-3.84,2.33-.38,.91-.47,1.64-.47,4.03v7.18h-2.49v-21.01h2.49v6.17Z" class="jsx-2941984696 cls-1"></path><path d="M249.76,224.16c-.53,3.78-2.99,5.98-6.68,5.98-4.44,0-7.21-3.02-7.21-7.84,0-5.07,2.84-8.25,7.31-8.25,3.71,0,6.05,1.95,6.48,5.39h-2.61c-.41-2.14-1.8-3.31-3.87-3.31-2.93,0-4.76,2.3-4.76,5.95s1.73,5.95,4.6,5.95c2.27,0,3.78-1.42,4.16-3.87h2.58Z" class="jsx-2941984696 cls-1"></path><path d="M266.12,229.64c-.47,.28-1.07,.41-1.83,.41-1.39,0-2.05-.73-2.11-2.36-1.35,1.61-3.06,2.36-5.29,2.36-3.18,0-5.07-1.58-5.07-4.25,0-1.64,.69-2.96,1.89-3.68,1.07-.6,2.55-.98,5.58-1.42,2.2-.28,2.8-.69,2.8-1.92,0-1.67-1.07-2.42-3.43-2.42-2.49,0-3.5,.79-3.75,2.86h-2.49c.16-1.83,.57-2.77,1.67-3.68,1.1-.94,2.68-1.38,4.85-1.38,3.75,0,5.64,1.35,5.64,4.06v8.79c0,.57,.25,.85,.76,.85,.28,0,.6-.06,.79-.16v1.95Zm-4.06-7.78c-.06,.03-.16,.06-.16,.06l-.25,.16c-.38,.19-.85,.32-1.35,.38l-2.58,.38c-2.18,.31-3.25,1.2-3.25,2.74s1.04,2.27,2.99,2.27c2.59,0,4.6-1.48,4.6-3.4v-2.58Z" class="jsx-2941984696 cls-1"></path><path d="M277.02,216.67c-.35-.03-.66-.06-.79-.06-1.32,0-2.46,.47-3.31,1.32-1.14,1.17-1.45,2.43-1.45,5.86v5.92h-2.49v-15.21h2.33v3.18c1.01-2.46,3-3.72,5.7-3.62v2.62Z" class="jsx-2941984696 cls-1"></path><path d="M291.89,224.82c-.82,3.56-3.02,5.32-6.64,5.32-4.47,0-7.21-3.05-7.21-7.97s2.96-8.13,7.12-8.13c2.77,0,5.1,1.48,6.17,3.97,.53,1.23,.75,2.61,.73,4.69h-11.43c.09,3.56,1.7,5.32,4.78,5.32,2.11,0,3.31-.94,4.03-3.21h2.46Zm-2.43-4.16c-.22-2.83-1.86-4.53-4.38-4.53s-4.06,1.57-4.44,4.53h8.82Z" class="jsx-2941984696 cls-1"></path><path d="M321.27,221.8c-.44,5.23-3.88,8.38-9.1,8.38-5.98,0-9.73-4.22-9.73-10.93,0-3.31,.94-5.98,2.86-8.09,1.76-1.95,4.13-2.93,7.09-2.93s5.13,.88,6.8,2.68c1.1,1.2,1.76,2.58,1.89,4.09h-2.77c-.63-2.74-2.87-4.41-5.99-4.41-2.52,0-4.38,1.01-5.64,3.06-.91,1.48-1.45,3.5-1.45,5.57,0,5.29,2.74,8.6,7.08,8.6,3.56,0,5.73-2.11,6.17-6.01h2.77Z" class="jsx-2941984696 cls-1"></path><path d="M338.48,222.08c0,5.04-2.74,8.06-7.27,8.06s-7.46-3.12-7.46-8.03,2.9-8.06,7.5-8.06,7.24,3.12,7.24,8.03Zm-12.18,.03c0,3.68,1.86,5.92,4.88,5.92s4.76-2.27,4.76-5.98-1.86-5.89-4.72-5.89c-3.02,0-4.91,2.27-4.91,5.95Z" class="jsx-2941984696 cls-1"></path><path d="M344.22,216.7c1.42-1.89,2.87-2.64,4.98-2.64s3.43,.82,4.19,2.68c1.29-1.83,2.93-2.68,5.1-2.68,1.76,0,3.24,.69,4.03,1.89,.53,.82,.73,1.73,.73,3.27v10.49h-2.49v-9.57c0-1.23-.09-2.05-.28-2.49-.41-.95-1.45-1.48-2.77-1.48-1.64,0-2.93,.82-3.56,2.23-.28,.63-.35,1.35-.35,3.24v8.06h-2.49v-9.76c0-1.57-.19-2.42-.63-2.93-.47-.57-1.26-.88-2.23-.88-1.61,0-2.99,.85-3.62,2.27-.31,.73-.44,1.64-.44,3.24v8.06h-2.49v-15.21h2.33v2.2Z" class="jsx-2941984696 cls-1"></path><path d="M369.79,216.67c1.19-1.8,2.77-2.62,5.07-2.62,4.22,0,6.99,3.21,6.99,8.13s-2.74,7.97-6.84,7.97c-2.27,0-3.88-.79-5.07-2.52v8h-2.49v-21.13h2.33v2.17Zm.06,5.41c0,3.68,1.83,5.95,4.79,5.95s4.66-2.3,4.66-5.86-1.89-6.01-4.66-6.01c-2.99,0-4.79,2.2-4.79,5.92Z" class="jsx-2941984696 cls-1"></path><path d="M398.36,229.64c-.47,.28-1.07,.41-1.83,.41-1.39,0-2.05-.73-2.11-2.36-1.35,1.61-3.06,2.36-5.29,2.36-3.18,0-5.07-1.58-5.07-4.25,0-1.64,.69-2.96,1.89-3.68,1.07-.6,2.55-.98,5.58-1.42,2.2-.28,2.8-.69,2.8-1.92,0-1.67-1.07-2.42-3.43-2.42-2.49,0-3.5,.79-3.75,2.86h-2.49c.16-1.83,.57-2.77,1.67-3.68,1.1-.94,2.68-1.38,4.85-1.38,3.75,0,5.64,1.35,5.64,4.06v8.79c0,.57,.25,.85,.76,.85,.28,0,.6-.06,.79-.16v1.95Zm-4.06-7.78c-.06,.03-.16,.06-.16,.06l-.25,.16c-.38,.19-.85,.32-1.35,.38l-2.58,.38c-2.18,.31-3.25,1.2-3.25,2.74s1.04,2.27,2.99,2.27c2.59,0,4.6-1.48,4.6-3.4v-2.58Z" class="jsx-2941984696 cls-1"></path><path d="M403.58,216.85c1.32-1.95,2.93-2.8,5.29-2.8,2.02,0,3.62,.82,4.38,2.2,.47,.88,.63,1.76,.63,3.62v9.83h-2.49v-8.94c0-2.02-.12-2.74-.5-3.34-.54-.79-1.55-1.26-2.8-1.26-1.73,0-3.18,.88-3.81,2.3-.41,.88-.53,1.86-.53,3.87v7.37h-2.49v-15.21h2.33v2.36Z" class="jsx-2941984696 cls-1"></path><path d="M424.05,229.2c-1.29,3.4-1.57,4.12-2.08,4.91-.72,1.17-1.79,1.73-3.27,1.73-.41,0-.94-.06-1.45-.19l-.37-.06v-2.27c.82,.25,1.23,.35,1.61,.35,1.26,0,1.61-.5,2.96-4.06l-6.01-15.12h2.8l3.34,8.91c.28,.75,.53,1.48,1.16,3.52,.6-1.89,.82-2.55,1.23-3.75l3.06-8.69h2.65l-5.61,14.71Z" class="jsx-2941984696 cls-1"></path></g><path d="M36.68,162.34c7.29,5.67,17.83,8.78,24.99,8.78,4.86,0,8.38-1.22,8.38-4.05,0-3.51-3.65-3.78-15.27-5.81-12.02-2.16-24.45-5.4-24.45-21.07s14.05-25.13,32.42-25.13c13.24,0,24.72,4.32,31.34,10l-10.81,15.67c-6.35-5-13.64-7.43-20.13-7.43-4.19,0-7.03,1.22-7.03,3.78,0,3.11,3.65,3.51,12.02,5,13.51,2.43,27.15,5.94,27.15,22.02s-15.4,25.4-34.99,25.4c-11.75,0-26.21-3.65-33.23-9.73l9.59-17.43Zm134.3,25.67h-25.67v-6.62c-3.78,4.19-10.27,8.24-19.05,8.24-14.32,0-24.32-10.13-24.32-25.8v-45.27h25.67v39.06c0,5.81,2.57,9.86,8.38,9.86,4.86,0,9.32-3.24,9.32-10.27v-38.65h25.67v69.45Zm63.2-35.8c0-21.35,15.81-36.78,37.02-36.78,22.42,0,34.72,15.7,34.72,36.64v5.81h-46.88c1.49,7.7,6.21,11.89,12.84,11.89,5.94,0,10.4-2.57,12.29-8.11l21.07,6.35c-5.27,14.46-19.59,21.62-33.77,21.62-22.43,0-37.29-15.27-37.29-37.42Zm25.4-8.51h21.48c-.27-5.13-3.92-9.59-10.13-9.59-5.4,0-9.59,3.11-11.35,9.59Zm-20.21-23.31s.06-.05,.09-.08c-4.5-2.92-10.94-3.84-14.67-3.57-7.68,.55-14.18,5.07-17.56,10.2v-8.38h-25.67v69.45h25.67v-32.78c0-9.59,6.03-15.26,14.81-15.01,2.46,.07,4.38,.83,5.69,1.44,1.84-8.16,5.81-15.5,11.65-21.27Zm134.09,16.94l5.25-18.79h1.7c2.86,0,5.34-2.41,6.21-7,.52-2.73,1.29-12.98,1.29-12.98l21.9,.14v19.84h13.15v18.79h-13.15v23.06c0,5.64,2.68,6.84,7.78,6.84,2.41,0,3.35-.13,5.77-.4v20.67c-4.16,.67-8.32,1.07-14.09,1.07-16.64,0-24.56-5.9-24.56-20.53v-30.7h-11.25Zm56.7,49.43v-6.38h-2.56v-3.02h8.54v3.02h-2.56v6.38h-3.42Zm11.51,0l-1.6-5.05v5.05h-2.96v-9.4h4.19l1.31,4.43,1.28-4.43h4.14v9.4h-2.99v-5.05l-1.6,5.05h-1.76Zm-92.27-44.5c-8.32-1.48-11.94-1.88-11.94-4.96,0-2.55,2.82-3.76,6.98-3.76,6.44,0,15.75,2.13,21.13,5.53l5.16-17.5c-5.26-3.04-15.33-6.25-26.7-6.15-18.25,.17-32.21,9.39-32.21,24.96s12.35,18.79,24.29,20.94c11.54,2.01,15.17,2.28,15.17,5.77,0,2.82-3.49,4.03-8.32,4.03-7.11,0-18.18-3.21-25.42-8.84l-1.19-.96c-1.19,6.79-3.8,13.08-7.51,18.57,7.02,5.98,21.17,9.48,32.78,9.48,19.46,0,34.76-8.72,34.76-25.23s-13.55-19.46-26.98-21.88Z" class="jsx-2941984696 cls-1"></path></g></svg>