<svg xmlns="http://www.w3.org/2000/svg" viewBox="0 0 194.03 165.53" width="146" height="124" role="img" aria-labelledby="titleid5c0017aed">
	<defs>
		<linearGradient class="cerosgradient" data-cerosgradient="true" id="CerosGradient_id5b2a26bac" gradientUnits="userSpaceOnUse" x1="50%" y1="100%" x2="50%" y2="0%">
			<stop offset="0%" stop-color="#d1d1d1" style="transition-property: none;">
			</stop>
			<stop offset="100%" stop-color="#d1d1d1" style="transition-property: none;">
			</stop>
		</linearGradient>
		<linearGradient>
		</linearGradient>
	</defs>
	<g id="Layer_2618ea1a0216ad" data-name="Layer 2">
		<g id="graphics618ea1a0216ad">
			<path fill="#a3e7fc" d="M156,73.92l.07-.07c1.25-1.22,29-30.4,30.46-31.95C176,30.66,155,8.14,154.78,7.92c-.23.22-14,14.59-17.15,17.89-1.41,1.47-5.7,5.94-11.9,4.42-2.1-.5-9.42-4.1-10.41-4.6a42.65,42.65,0,0,0-5.25-2.36,10.59,10.59,0,0,0-9.54,1.62C98,26.6,67.78,57.37,67.69,57.47l2.2,1.83c2.32,2,4.51,3.81,6.79,4.64,4.55,1.66,8.87.27,13.19-4.21,2.41-2.5,20.49-21.24,20.9-21.63a3.56,3.56,0,1,1,4.93,5.15c-.09.08-.94,1-2.24,2.3l3.37,3.37a3.56,3.56,0,0,1,5,0c2.57,2.62,18,18,30.87,31l2.39-2.39A3.49,3.49,0,0,1,156,73.92Z" style="transition-property: none;">
			</path>
			<path fill="#6950c3" d="M115.81,38.21a3.56,3.56,0,0,0-5-.11c-.41.39-18.49,19.13-20.9,21.63-4.32,4.48-8.64,5.87-13.19,4.21-2.28-.83-4.47-2.68-6.79-4.64l-2.2-1.83c.09-.1,30.32-30.87,32.84-32.58a10.59,10.59,0,0,1,9.54-1.62,42.65,42.65,0,0,1,5.25,2.36c1,.5,8.31,4.1,10.41,4.6,6.2,1.52,10.49-2.95,11.9-4.42,3.18-3.3,16.92-17.67,17.15-17.89.21.22,21.19,22.74,31.7,34C185,43.45,157.27,72.63,156,73.85l-.07.07a3.49,3.49,0,0,0-.83,3.67,3.6,3.6,0,0,0,.82,1.34,3.54,3.54,0,0,0,2.53,1,3.64,3.64,0,0,0,2.55-1c1.29-1.26,29.44-30.89,31-32.56a6.07,6.07,0,0,0,0-8.93Q176.28,20.55,160.51,3.61C159,2,157.35.21,154.87.19h0c-2.54,0-4.32,1.85-6,3.64,0,0-13.14,13.75-16.3,17-2.53,2.62-3.95,2.72-5.09,2.45-1.32-.32-8-3.59-8.88-4a50.49,50.49,0,0,0-6.14-2.74A17.62,17.62,0,0,0,96.53,19c-3.91,2.66-29.38,28.55-33.77,33.29C61.48,53.66,60,55.57,60.21,58s1.91,4.12,3.2,5.16c.63.5,7.36,6.19,10.83,7.45,7.27,2.65,14.46.58,20.77-6,1.91-2,13.5-14,18.45-19.13,1.3-1.34,2.15-2.22,2.24-2.3A3.57,3.57,0,0,0,115.81,38.21Z" style="transition-property: none;">
			</path>
			<path fill="#6950c3" d="M105.1,123.63a14.25,14.25,0,0,0-11.24-4.2c0-.39.12-.77.12-1.16a14.34,14.34,0,0,0-14.17-14.5c-.54,0-1.06.09-1.59.14a14.23,14.23,0,0,0-14-16.08,14.3,14.3,0,0,0-3.7-13.2,14.34,14.34,0,0,0-20.27-.23L23.37,90.88a14.33,14.33,0,0,0,8.81,24.53c.36,0,.72,0,1.08,0A14.3,14.3,0,0,0,46,132.92c.35,0,.7.05,1.06.05a12,12,0,0,0,1.59-.14,14.06,14.06,0,0,0-.18,1.59,14.34,14.34,0,0,0,13.12,14.45c.35,0,.7,0,1.06,0s.77-.08,1.15-.1c0,.38-.12.76-.12,1.15a14.32,14.32,0,0,0,13.11,14.45c.35,0,.7.05,1.06.05A14.22,14.22,0,0,0,88,160.39l16.86-16.48A14.36,14.36,0,0,0,105.1,123.63ZM28.24,106.17A7.21,7.21,0,0,1,28.36,96L45.21,79.5a7.21,7.21,0,0,1,5.65-2,7.14,7.14,0,0,1,4.54,2.14,7.21,7.21,0,0,1-.11,10.19L38.43,106.29A7.23,7.23,0,0,1,28.24,106.17Zm24,17.62A7.21,7.21,0,0,1,40,118.55a7.11,7.11,0,0,1,2.17-5.06L59,97a7.21,7.21,0,0,1,10.08,10.3Zm10.47,18a7.24,7.24,0,0,1-5.07-2.17,7.1,7.1,0,0,1-2-5.12,7.18,7.18,0,0,1,2.16-5.07L74.61,113a7.17,7.17,0,0,1,5.12-2.06,4.58,4.58,0,0,1,.53,0,7.2,7.2,0,0,1,4.42,12.33L67.83,139.74A7.2,7.2,0,0,1,62.71,141.79Zm37.18-3L83,155.29A7.21,7.21,0,0,1,73,145L89.81,128.5a7.21,7.21,0,0,1,10.08,10.31Z" style="transition-property: none;">
			</path>
			<path fill="#a3e7fc" d="M55.4,79.62a7.14,7.14,0,0,0-4.54-2.14,7.21,7.21,0,0,0-5.65,2L28.36,96a7.21,7.21,0,0,0,10.07,10.31L55.29,89.81A7.21,7.21,0,0,0,55.4,79.62Z" style="transition-property: none;">
			</path>
			<path fill="#a3e7fc" d="M95.46,126.48a7.23,7.23,0,0,0-5.65,2L73,145A7.21,7.21,0,0,0,83,155.29l16.86-16.48a7.21,7.21,0,0,0-4.43-12.33Z" style="transition-property: none;">
			</path>
			<path fill="#a3e7fc" d="M86.85,118.19a7.2,7.2,0,0,0-6.59-7.26,4.58,4.58,0,0,0-.53,0A7.17,7.17,0,0,0,74.61,113L57.75,129.43a7.18,7.18,0,0,0-2.16,5.07,7.1,7.1,0,0,0,2,5.12,7.21,7.21,0,0,0,10.19.12l16.85-16.48A7.13,7.13,0,0,0,86.85,118.19Z" style="transition-property: none;">
			</path>
			<path fill="#a3e7fc" d="M69.21,97.12A7.21,7.21,0,0,0,59,97L42.17,113.49a7.19,7.19,0,0,0-.12,10.18,7.21,7.21,0,0,0,10.19.12L69.1,107.31A7.22,7.22,0,0,0,69.21,97.12Z" style="transition-property: none;">
			</path>
			<path fill="#6950c3" d="M31.87,74.56a3.57,3.57,0,0,0,2.55-6.06C25.75,59.66,7.64,41.28,7.64,41.28L38.28,9.11S50.23,21.63,54.22,25.67A16.91,16.91,0,0,0,60,29.48a51.12,51.12,0,0,0,15,3,3.57,3.57,0,0,0,.56-7.11,44.87,44.87,0,0,1-13-2.51,9.83,9.83,0,0,1-3.26-2.18c-3-3-17.08-17.85-17.94-18.8A4.66,4.66,0,0,0,38.75,0a3.36,3.36,0,0,0-2.42.73c-1.22.89-28,29.43-32.66,34.33-4.92,5.15-4.9,7.36.1,12.44,9,9.09,16.9,17.13,25.56,26A3.52,3.52,0,0,0,31.87,74.56Z" style="transition-property: none;">
			</path>
			<path fill="#6950c3" d="M116.83,48.92h0a3.55,3.55,0,0,0,0,5c4.27,4.35,43.49,43.55,48.71,49.19,3.77,3.66,1.64,7.2,0,9-6.68,7.47-12.36-1.34-17.1-6.33a3.57,3.57,0,1,0-5.17,4.91c1.15,1.21,7,7.14,8.42,8.71,3.54,3.82,1,9.52-3.4,11.29-6.53,2.61-10.58-5.2-14.57-8.9a3.56,3.56,0,1,0-4.85,5.22c.07.07,6.86,6.37,9.57,9.26.88.92.3,3.49-.07,4.53-1.29,3.63-5.67,6-9.36,4.55-3.23-3.12-7.19-6.91-7.43-7.12a3.56,3.56,0,1,0-4.71,5.35l6.85,6.57c.53.52-.46,3.57-.69,4.16a6.33,6.33,0,0,1-10,2.49c-2-1.63-1.13-1.2-2.2-2.23a3.43,3.43,0,0,0-4.93.21c-4,4.13,4.06,9,7.35,10.07a14,14,0,0,0,4.5.64,12.72,12.72,0,0,0,2.14-.21,12.53,12.53,0,0,0,8.74-6.17,15.52,15.52,0,0,0,2-6.64,19.61,19.61,0,0,0,5.07-.49,12.54,12.54,0,0,0,8.76-7.59,18.71,18.71,0,0,0,1-5.79c3.38-.31,6.85-1.1,9.58-3.21a13.39,13.39,0,0,0,4.87-9.47,22.72,22.72,0,0,0,.09-3.46,16.75,16.75,0,0,0,10.83-5.59c4.41-4.92,6-12.66-.25-18.73-2-2.21-9.42-9.69-17.86-18.2-12.91-13-28.3-28.39-30.87-31A3.56,3.56,0,0,0,116.83,48.92Z" style="transition-property: none;">
			</path>
		</g>
	</g>
	<title id="titleid5c0017aed">
		Purple and blue icon showing a handshake.
	</title>
</svg>
