<svg xmlns="http://www.w3.org/2000/svg" viewBox="0 0 100 89.95" role="img" aria-labelledby="titleidaec389bbf" width="100" height="89" style="width: 100px; height: 89px; display: block; transform: scale(1, 1); transition-property: none;"><defs><linearGradient class="cerosgradient" data-cerosgradient="true" id="CerosGradient_id07d8aff74" gradientUnits="userSpaceOnUse" x1="50%" y1="100%" x2="50%" y2="0%"><stop offset="0%" stop-color="#d1d1d1" style="transition-property: none;"></stop><stop offset="100%" stop-color="#d1d1d1" style="transition-property: none;"></stop></linearGradient><linearGradient></linearGradient><style>.cls-1-id07d8aff74{fill:#ba0a21;}.cls-2-id07d8aff74{fill:none;}</style></defs><g id="Layer_2id07d8aff74" data-name="Layer 2"><g id="graphicsid07d8aff74"><path class="cls-1-id07d8aff74" d="M45.62,42.61h-25V.44H.33V58.55h.2v.19H45.62ZM62.9,26.41a10.39,10.39,0,0,1-4,7.29,13,13,0,0,1-1.26.83,8.43,8.43,0,0,0,0-5.3,9.7,9.7,0,0,0-6.79-5.38c-2.67-3.05-6.81-4.38-11.25-6.46a8,8,0,0,1-4.7-7.63c1.26,2.51,5.13,3.5,9.66,4.38s7.32.53,11.9,2.67A14.37,14.37,0,0,1,58.63,18a12,12,0,0,1,1.24,1,9.47,9.47,0,0,1,2.9,5,8.34,8.34,0,0,1,.13,2.39M37.66,20.2c1.26,2.19,3.76,3,8.13,4.22l1.2.34,2.1.59a14.6,14.6,0,0,1,2.07.64,12.12,12.12,0,0,1,1.14.57,7.92,7.92,0,0,1,3,2.7A5.32,5.32,0,0,1,56,32.61a8.26,8.26,0,0,1-1,3,11.14,11.14,0,0,1-1.52,2.15,6.13,6.13,0,0,1-.57.57s-.22.17-.22.12c0-.39.82-2.8-7.5-7.87S37.66,20.2,37.66,20.2M99.85,58.67V.18H79.49V17.86A26.7,26.7,0,0,0,66.38,3.67C57.05-1.19,41.75.18,41.75.18H27V40.5H47.91v0h6.92l-.06,0h5.67v1.94l-12.52,0,0,16.28H50.1V44.29h6.35L52.86,58.67c22.28.85,26.63-16.32,26.63-16.32V58.67Z" style="transition-property: none;"></path><rect class="cls-2-id07d8aff74" x="0.06" width="99.94" height="78.77" style="transition-property: none;"></rect><rect class="cls-1-id07d8aff74" x="0.06" y="77.67" width="99.94" height="1.1" style="transition-property: none;"></rect><path d="M94.85,89.86h5.09V89H96.26V81.75H94.85Zm-7.63-3,1.77-4h0l1.72,4Zm1.06-5.11-3.76,8.11h1.41l.9-2.11h4.28L92,89.86h1.48l-3.66-8.11ZM75.8,89.86h1.35V83.21h0l4.22,6.65h1.76V81.75H81.81v6.69h0l-4.22-6.69H75.8Zm-8.82-4c0-2.5,1.25-3.39,2.73-3.39,1.9,0,2.6,1.58,2.6,3.22,0,2.5-1.25,3.39-2.73,3.39-1.89,0-2.6-1.58-2.6-3.22m-1.48,0A3.79,3.79,0,0,0,69.58,90c2.65,0,4.21-1.42,4.21-4.23a3.79,3.79,0,0,0-4.08-4.06c-2.65,0-4.21,1.42-4.21,4.23m-3.42,4H63.5V81.75H62.08Zm-5.51,0H58V82.63h2.57v-.88H54v.88h2.57Zm-8.53-3,1.77-4h0l1.72,4Zm1.06-5.11-3.76,8.11h1.42l.9-2.11h4.27l.9,2.11h1.48l-3.67-8.11ZM36.62,89.86H38V83.21h0l4.23,6.65H44V81.75H42.63v6.69h0l-4.23-6.69H36.62ZM29.7,82.58h1.12c1.24,0,2.06.43,2.06,1.34,0,.71-.58,1.43-2.09,1.43H29.7Zm-1.42,7.28H29.7V86.19h.64c1.06,0,1.46.25,1.79.93l1.28,2.74h1.52l-1.57-3.25a1.35,1.35,0,0,0-1.22-.79v0c1.65-.25,2.22-1.08,2.22-1.94a1.83,1.83,0,0,0-.84-1.55,4,4,0,0,0-2.36-.55H28.28Zm-7.43,0h5.43V89h-4V86.1h3.63v-.89H22.26V82.63h3.81v-.88H20.85Zm-5.51,0h1.41V82.63h2.57v-.88H12.77v.88h2.57Zm-11.45,0H5.24V83.21h0l4.22,6.65h1.75V81.75H9.89v6.69h0L5.64,81.75H3.89ZM0,89.86H1.41V81.75H0Z" style="transition-property: none;"></path><path d="M95.25,67.71h.49c1.65,0,2.4,1.1,2.4,2.82s-.75,2.82-2.4,2.82h-.49Zm-1.47,6.73h2.09a3.55,3.55,0,0,0,3.83-3.91c0-2.59-1.33-3.91-3.83-3.91H93.78Zm-5.66,0h4.32V73.3H89.59V71h2.59V69.85H89.59V67.76h2.74V66.62H88.12Zm-3.18,0h1.47V66.62H84.94Zm-5.32,0h1.47V71h2.47V69.89H81.09V67.76h2.58V66.62h-4Zm-3.18,0h1.47V66.62H76.44Zm-5.92-.23a3.78,3.78,0,0,0,1.82.35c1.53,0,2.68-.77,2.68-2.36a2.13,2.13,0,0,0-1.38-2.11l-.86-.47c-.45-.25-.85-.47-.85-1.05s.38-.92,1.11-.92a3.93,3.93,0,0,1,1.5.33l.07-1.2a5.21,5.21,0,0,0-1.67-.28,2.23,2.23,0,0,0-2.52,2.13,2.21,2.21,0,0,0,1.3,2.06l.75.4c.71.38,1,.63,1,1.19a1.09,1.09,0,0,1-1.21,1.13,3.31,3.31,0,0,1-1.7-.48ZM65.73,70V67.71h.59c.83,0,1.31.23,1.31,1.13A1.15,1.15,0,0,1,66.32,70Zm-1.47,4.41h1.47V71.08h.33a1,1,0,0,1,1.11.82L68,74.44h1.56l-1-3c-.25-.73-.59-.86-.89-.91v0a1.77,1.77,0,0,0,1.55-1.84c0-1.44-1-2.06-2.38-2.06h-2.5Zm-5.67,0h4.32V73.3H60.06V71h2.59V69.85H60.06V67.76H62.8V66.62H58.59Zm-4.93,0h1.55l2.44-7.82H56.14l-1.66,6h0l-1.61-6H51.26Zm-4.82,0h1.47V66.62H48.84ZM43,67.71h.49c1.65,0,2.4,1.1,2.4,2.82s-.75,2.82-2.4,2.82H43Zm-1.47,6.73h2.09a3.55,3.55,0,0,0,3.83-3.91c0-2.59-1.33-3.91-3.83-3.91H41.53Zm-7.68,0h1.47v-3.1l2.36-4.72H36.1l-1.47,3.13-1.56-3.13H31.49l2.36,4.68Zm-5.94,0h1.47V67.76h1.78V66.62h-5v1.14h1.79ZM22,70V67.71h.59c.83,0,1.31.23,1.31,1.13A1.15,1.15,0,0,1,22.63,70Zm-1.47,4.41H22V71.08h.33a1,1,0,0,1,1.12.82l.78,2.54h1.57l-1.05-3c-.25-.73-.58-.86-.88-.91v0a1.78,1.78,0,0,0,1.55-1.84c0-1.44-1-2.06-2.39-2.06h-2.5Zm-5.66,0h4.32V73.3H16.37V71H19V69.85h-2.6V67.76h2.75V66.62H14.91Zm-6.38,0H11a2.2,2.2,0,0,0,2.49-2.19A1.78,1.78,0,0,0,12,70.37v0a1.75,1.75,0,0,0,1.33-1.8c0-1.33-.76-1.93-2.41-1.93H8.53ZM10,71h.77a1.2,1.2,0,1,1,0,2.4H10Zm0-3.28h.72a1.05,1.05,0,0,1,1.19,1,1.11,1.11,0,0,1-1.15,1.17H10ZM5.36,74.44H6.83V66.62H5.36Zm-5.18,0H4.29V73.3H1.65V66.62H.18Z" style="transition-property: none;"></path><rect class="cls-2-id07d8aff74" y="66.5" width="99.94" height="23.44" style="transition-property: none;"></rect></g></g><title id="titleidaec389bbf">Liberty Diversified International Logo</title></svg>