<svg viewBox="0 0 15 15" xmlns="http://www.w3.org/2000/svg" class="jsx-1195366677 linkedin">
	<title class="jsx-1195366677">
		Follow Bind Insurance on Linkedin
	</title>
	<g stroke="none" class="jsx-1195366677">
		<g transform="translate(-194.000000, -499.000000)" class="jsx-1195366677">
			<g class="jsx-1195366677">
				<g transform="translate(120.000000, 499.000000)" class="jsx-1195366677">
					<g id="linkedin" transform="translate(74.000000, 0.000000)" class="jsx-1195366677">
						<path d="M3.35825893,15 L0.247767857,15 L0.247767857,4.98549107 L3.35825893,4.98549107 L3.35825893,15 Z M1.80133929,3.61941964 C0.806919643,3.61941964 0,2.79575893 0,1.80133929 C0,0.806919643 0.806919643,0 1.80133929,0 C2.79575893,0 3.60267857,0.806919643 3.60267857,1.80133929 C3.60267857,2.79575893 2.79575893,3.61941964 1.80133929,3.61941964 Z M15,15 L11.8962054,15 L11.8962054,10.125 C11.8962054,8.96316964 11.8727679,7.47321429 10.2790179,7.47321429 C8.66183036,7.47321429 8.4140625,8.73549107 8.4140625,10.0412946 L8.4140625,15 L5.30691964,15 L5.30691964,4.98549107 L8.29017857,4.98549107 L8.29017857,6.3515625 L8.33370536,6.3515625 C8.74888393,5.56473214 9.76339286,4.734375 11.2767857,4.734375 C14.4241071,4.734375 15.0033482,6.80691964 15.0033482,9.49888393 L15.0033482,15 L15,15 Z" class="jsx-1195366677">
						</path>
					</g>
				</g>
			</g>
		</g>
	</g>
</svg>
