<svg xmlns="http://www.w3.org/2000/svg" xmlns:xlink="http://www.w3.org/1999/xlink" viewBox="0 0 200 27.42" role="img" aria-labelledby="titleid5323a633b" width="200" height="27" style="width: 200px; height: 27px; display: block; transform: scale(1, 1); transition-property: none;"><defs><linearGradient class="cerosgradient" data-cerosgradient="true" id="CerosGradient_id1b062990a" gradientUnits="userSpaceOnUse" x1="50%" y1="100%" x2="50%" y2="0%"><stop offset="0%" stop-color="#d1d1d1" style="transition-property: none;"></stop><stop offset="100%" stop-color="#d1d1d1" style="transition-property: none;"></stop></linearGradient><linearGradient></linearGradient><style>.cls-1-id1b062990a{fill:none;}.cls-2-id1b062990a{clip-path:url(#clip-pathid1b062990a);}.cls-3-id1b062990a{fill:#1f8dd2;}</style><clipPath id="clip-pathid1b062990a" transform="translate(0 0)"><rect class="cls-1-id1b062990a" width="190.1" height="27.42" style="transition-property: none;"></rect></clipPath></defs><g id="Layer_2id1b062990a" data-name="Layer 2"><g id="graphicsid1b062990a"><g class="cls-2-id1b062990a"><path d="M0,2V24.74c0,1.37.8,2,2.34,2H23.83c1.49,0,2.35-.63,2.35-2s-.86-2-2.35-2H5.37c-.74,0-1-.35-1-1V2A2,2,0,0,0,2.17,0,2,2,0,0,0,0,2" transform="translate(0 0)" style="transition-property: none;"></path><path d="M36.92,16.77V2a2.18,2.18,0,0,0-4.34,0V17.17c0,9.2,5.71,10.25,15.6,10.25s15.61-1.05,15.61-10.25V2a2.18,2.18,0,0,0-4.35,0V16.77c0,7.49-4,6.48-11.26,6.48s-11.26.89-11.26-6.48" transform="translate(0 0)" style="transition-property: none;"></path><path d="M106.14,6.69V25.08a2,2,0,0,0,2.17,2,2,2,0,0,0,2.17-2V3a2.81,2.81,0,0,0-2.74-3c-1.5,0-2.15.85-3.6,2.17L93.05,13.11H93L81.91,2.23C80.48.77,79.4,0,78.13,0a3.07,3.07,0,0,0-2.8,3V25.08a2,2,0,0,0,2.17,2,2,2,0,0,0,2.18-2V6.63h.22l10.58,10c1,.93,1.69,1.65,2.46,1.65,1,0,1.45-.75,2.51-1.65L106,6.69Z" transform="translate(0 0)" style="transition-property: none;"></path><path class="cls-3-id1b062990a" d="M148.55,2.4c0-1.31-.8-2.06-2.34-2.06H124.49c-1.55,0-2.35.75-2.35,2.06v2l24.12,0c1.49,0,2.29-.68,2.29-1.94" transform="translate(0 0)" style="transition-property: none;"></path><path d="M122.14,11.63V24.74c0,1.37.8,2,2.35,2h22c1.48,0,2.28-.63,2.28-2s-.8-2-2.28-2H127.52c-.75,0-1-.35-1-1v-6h14.29c1.54,0,2.34-.68,2.34-2s-.8-2-2.34-2Z" transform="translate(0 0)" style="transition-property: none;"></path><path d="M190.1,24.51V2a2,2,0,0,0-2.17-2,2,2,0,0,0-2.17,2V20.22l-21.49-18C162.79.93,162,0,160.55,0S158,1,158,3V25.08a2,2,0,0,0,2.17,2,2,2,0,0,0,2.17-2V6.46l21.27,18.28C185,26,186,27.08,187.47,27.08a2.54,2.54,0,0,0,2.63-2.57" transform="translate(0 0)" style="transition-property: none;"></path></g><path d="M193.13,3.65v0a3.44,3.44,0,1,1,6.87,0v0a3.44,3.44,0,1,1-6.87,0Zm6.48,0v0a3,3,0,1,0-6.08,0v0a3,3,0,0,0,3,3.06A3.06,3.06,0,0,0,199.61,3.63Zm-4.39-1.82h1.58c.77,0,1.35.37,1.35,1.11A1.05,1.05,0,0,1,197.34,4l.92,1.32h-.81l-.83-1.2h-.73V5.3h-.67Zm1.52,1.74c.46,0,.71-.24.71-.58s-.25-.57-.71-.57h-.85V3.55Z" transform="translate(0 0)" style="transition-property: none;"></path></g></g><title id="titleid5323a633b">Lumen Logo</title></svg>