<svg xmlns="http://www.w3.org/2000/svg" viewBox="0 0 167.04 27.42" role="img" aria-labelledby="titleid58bba4d01" width="167" height="27" style="width: 167px; height: 27px; display: block; transform: scale(1, 1); transition-property: none;"><defs><linearGradient class="cerosgradient" data-cerosgradient="true" id="CerosGradient_id7072fed41" gradientUnits="userSpaceOnUse" x1="50%" y1="100%" x2="50%" y2="0%"><stop offset="0%" stop-color="#d1d1d1" style="transition-property: none;"></stop><stop offset="100%" stop-color="#d1d1d1" style="transition-property: none;"></stop></linearGradient><linearGradient></linearGradient><style>.cls-1-id7072fed41{fill:#0c407d;}</style></defs><g id="Layer_2id7072fed41" data-name="Layer 2"><g id="graphicsid7072fed41"><path class="cls-1-id7072fed41" d="M151.56,17.31A9.84,9.84,0,0,1,161.83,7.2,11.27,11.27,0,0,1,167,8.44v4.28h-.12a8.94,8.94,0,0,0-4.74-1.32c-3.7,0-5.68,2.53-5.68,5.91s2,5.91,5.68,5.91a9,9,0,0,0,4.74-1.32H167v4.28a11.27,11.27,0,0,1-5.21,1.24,9.84,9.84,0,0,1-10.27-10.11M151.09,27a11.64,11.64,0,0,1-2.37.28c-3.7,0-5.68-1.95-5.68-5.53V7.59h4.86V21.43c0,1.29.62,1.91,1.95,1.91a6.4,6.4,0,0,0,1.13-.12h.11ZM148.41,2.84A2.86,2.86,0,1,1,145.53,0a2.84,2.84,0,0,1,2.88,2.84M126.7,16.18c0-3,1.52-4.94,4.32-4.94s4,1.83,4,4.94V27h4.82V16c0-4.67-2.41-8.79-7.66-8.79a6,6,0,0,0-5.72,3.5V7.59h-4.63V27h4.82Zm-17.59,7.08c3.46,0,5.25-2.53,5.25-6s-1.79-5.95-5.25-5.95-5.29,2.53-5.29,5.95,1.9,6,5.29,6m0,4.16A9.83,9.83,0,0,1,98.88,17.31a10.21,10.21,0,0,1,20.42,0,9.82,9.82,0,0,1-10.19,10.11M92.3,16.84c0-3.15,1.64-4.9,4.75-4.9a6,6,0,0,1,1.67.24h.08V7.66a5.53,5.53,0,0,0-1.91-.31c-2.33,0-3.89,1.44-4.78,3.77V7.59H87.48V27H92.3Zm-32,6.5c3.27,0,5.1-2.53,5.1-6.07s-1.83-6-5.1-6-5,2.53-5,6,1.72,6.07,5,6.07m22.06,4.08c-4.48,0-7-2.06-7-6.73V11.51H70v9.77c0,1.44.54,2,1.71,2a4,4,0,0,0,.93-.08h.12V27a10.21,10.21,0,0,1-2.1.24c-2.65,0-4.28-1-5-3.23a7.26,7.26,0,0,1-6.38,3.38c-4.94,0-9-3.85-9-10.15s4-10.07,9-10.07a7.31,7.31,0,0,1,5.87,2.64V.19H70v7.4h5.37V3h4.82V7.59h5.17v3.92H80.17v9c0,1.95,1,2.88,2.84,2.88a8.49,8.49,0,0,0,2.22-.27h.11v4a12.78,12.78,0,0,1-3,.39M0,27H4.78l.9-16.76.19-4.55H6l1,4.55L10.85,27h6l3.93-16.76,1-4.55h.08l.2,4.55L23,27h5L26.3.19H18.36L14.78,16.3,14,20.38h-.07l-.82-4.08L9.53.19H1.59ZM48.51,17a13.91,13.91,0,0,1-.24,2.68h-14c.5,2.34,2.49,3.78,6.22,3.78h.09c.24,0,.47,0,.69,0l.37,0,.29,0a13.25,13.25,0,0,0,4.39-1.21l.32-.15h0l.81-.45h.11v3.94a13.51,13.51,0,0,1-7,2h-.28c-7,0-10.89-4-10.89-9.84,0-6.26,4-10.38,9.72-10.38S48.51,11.28,48.51,17Zm-4.59-1.09c-.24-2.92-1.75-4.63-4.83-4.63-2.84,0-4.59,1.79-4.9,4.63Z" style="transition-property: none;"></path></g></g><title id="titleid58bba4d01">Medtronic Logo</title></svg>