<svg xmlns="http://www.w3.org/2000/svg" viewBox="0 0 720 404" width="218" height="122" role="img" aria-labelledby="titleid594c07307">
	<defs>
		<linearGradient class="cerosgradient" data-cerosgradient="true" id="CerosGradient_idc6b071901" gradientUnits="userSpaceOnUse" x1="50%" y1="100%" x2="50%" y2="0%">
			<stop offset="0%" stop-color="#d1d1d1" style="transition-property: none;">
			</stop>
			<stop offset="100%" stop-color="#d1d1d1" style="transition-property: none;">
			</stop>
		</linearGradient>
		<linearGradient>
		</linearGradient>
		<style>
			.cls-1{fill:#a3e7fc;}.cls-2{fill:#6950c3;}.cls-3{fill:none;}
		</style>
	</defs>
	<g id="Layer_1" data-name="Layer 1">
		<path fill="#a3e7fc" d="M277.84,204.41c2,11.07,3.54,19.4,3.55,25.52,4.78,4.17,22.46,10.6,34.34,13.16,1.65-3.21,2.73-7.07,3.87-12.39a115.38,115.38,0,0,1-24.7-40c-6-16.35-10.17-36.1-13.36-64.06a19,19,0,0,1,6.64-16.5c7.85-6.82,17.18-26.58,24.93-52.89a12.13,12.13,0,0,1,10.11-8.65h0a.75.75,0,0,0,.15,0,11.21,11.21,0,0,1,3.22,0,12.29,12.29,0,0,1,8.49,5.61c21.22,34.62,50.78,45.64,97.4,52.88l16.27-11.78c-.84-3.1-1.79-6.16-2.87-9.21a118.45,118.45,0,0,0-20.4-36.38c-8.6-10.39-19.5-21.06-32.29-26-9.72-3.74-20.28-5-30.65-5-21.48,0-38,5.57-48.95,16.52C256.07,85.32,270.23,162.79,277.84,204.41Z" style="transition-property: none;">
		</path>
		<path fill="#a3e7fc" d="M452.81,115.44,443.76,122c-5.16,48.31-13.76,82.2-38.58,108.62a101.59,101.59,0,0,0,4,12.6c11.19-2.45,29.38-9.05,34.25-13.28,0-6.15,1.56-14.49,3.6-25.57C451.16,181.85,457.15,148.86,452.81,115.44Z" style="transition-property: none;">
		</path>
		<path fill="#6950c3" d="M301.51,392a9.3,9.3,0,0,0-11.27-6.89,7.19,7.19,0,0,1-5.33-.93,3.37,3.37,0,0,1-1.57-2s-7.06-42.89-7.06-44.06c0-5.8,1.77-16,13.62-18.79,14.32-3.49,20.21,9.75,21.89,14.46l15.4,36a3.8,3.8,0,0,1-.62,2.32,7.41,7.41,0,0,1-4.44,3.34,9.35,9.35,0,0,0,4.32,18.19,26.29,26.29,0,0,0,16.23-12.05,22,22,0,0,0,2.44-17.21l-15.91-37.32c-5.78-16.52-18.74-26.3-33.76-26.77a139.47,139.47,0,0,1,1-27.38l22.4-9L347,284.5a26.07,26.07,0,0,0,30.76,0l28.45-20.76,30,12.14c3.28,15.71,2.46,31.8-2.29,48.18a22.71,22.71,0,0,0-2.59-.36,26.56,26.56,0,1,0,19.57,9c5.26-16.28,7.29-32.54,5.69-48.57l38.31,15.48a25,25,0,0,1,13.56,15c3.31,10.18,8,39,11.69,71.65a9.54,9.54,0,0,0,9.88,8.26,9.41,9.41,0,0,0,8.7-10.36c-3.08-27.33-8-61.47-12.5-75.33a43.72,43.72,0,0,0-24.07-26.48l-68-27.24c14.4-5.19,28.71-13.17,27.9-24.3-.29-3.91,1.45-13.25,3.26-23.12,4.65-25.23,8.59-50.65,7.72-76.39-1.06-31.49-9.59-62.69-28.74-88.1-9.46-12.58-21.72-25.49-35.71-33S378.43,0,362.6,0h-.08c-26.6,0-47.5,7.42-61.64,21.54-65.13,56.66-49.71,141-41.44,186.25,1.8,9.86,3.51,19.19,3.23,23.08-.81,11.14,13.52,19.11,27.94,24.3-14.35,5.42-62.82,23.75-72.8,27.22a43.68,43.68,0,0,0-24.08,26.48c-4.52,13.86-9.43,48-12.5,75.31a9.43,9.43,0,0,0,2.1,7c5.17,6.21,15.58,3.05,16.48-4.92,3.66-32.67,8.37-61.47,11.7-71.65a24.88,24.88,0,0,1,13.55-15q26-9.28,51.81-18.81a177.56,177.56,0,0,0,.1,23.68c-12.09,6.21-19.38,18.39-19.38,33.7,0,1.94,7.33,47.3,7.33,47.3a21.83,21.83,0,0,0,9.81,14.4A26,26,0,0,0,288.79,404h0a25.07,25.07,0,0,0,5.8-.69A9.33,9.33,0,0,0,301.51,392Zm129.86-34a7.81,7.81,0,0,1,0-15.6,7.06,7.06,0,0,1,3.88,1.14,7.84,7.84,0,0,1,3.62,6.66A7.67,7.67,0,0,1,431.37,358Zm-64.6-88.59a7.4,7.4,0,0,1-8.73,0L332.76,251a49.13,49.13,0,0,0,2.77-7c4.55,2.54,16.72,6.29,26.92,6.29s22.27-3.78,26.94-6.4a50.79,50.79,0,0,0,2.2,6.25c.14.3.32.58.46.87Zm-54.32-85.26c-5.51-14.88-9.32-33.28-12-59.93,11.15-9.66,20.14-30,26.54-48.82,23.29,30.53,54.42,42.14,97.69,49.34-5.9,51.48-15.39,76.4-36.22,96.57l-2.59,2.46c-6.59,5.41-15.19,7.89-23.65,7.81-8.12-.08-16.71-2-22.9-7.55-1-.89-2-1.79-2.94-2.73C325.6,210.85,318,199.06,312.45,184.14ZM447,204.34c-2,11.07-3.6,19.43-3.61,25.57v0h0c-4.85,4.23-23.06,10.84-34.28,13.29a103.67,103.67,0,0,1-4-12.59C430,204.19,438.6,170.3,443.75,122h0l9.07-6.56C457.17,148.83,451.18,181.82,447,204.34ZM281.37,229.93c0-6.13-1.53-14.46-3.55-25.52C270.21,162.79,256,85.31,313.6,35.22c11-10.94,27.47-16.5,49-16.52h0c10.37,0,20.94,1.28,30.67,5,12.78,4.91,23.69,15.58,32.29,26A119.31,119.31,0,0,1,446,86.07c1.06,3.05,2,6.11,2.86,9.21l-16.27,11.78h0c-46.64-7.24-76.2-18.24-97.42-52.88a12.32,12.32,0,0,0-8.46-5.61,11.21,11.21,0,0,0-3.22,0,.75.75,0,0,1-.15,0,12.13,12.13,0,0,0-10.11,8.65c-7.75,26.31-17.07,46.08-24.93,52.89a19.05,19.05,0,0,0-6.64,16.5c3.2,28,7.33,47.71,13.39,64a115.2,115.2,0,0,0,24.71,40.06c-1.19,5.33-2.25,9.21-3.92,12.42h0C303.84,240.53,286.13,234.1,281.37,229.93Z" style="transition-property: none;">
		</path>
		<path fill="#6950c3" d="M315.73,243.09c-11.88-2.56-29.56-9-34.34-13.16,0-6.12-1.53-14.45-3.55-25.52-7.61-41.62-21.77-119.09,35.78-169.19,11-10.95,27.47-16.5,48.95-16.52h0c-21.49,0-38,5.58-49,16.52C256,85.31,270.21,162.79,277.82,204.41c2,11.06,3.54,19.39,3.55,25.52,4.76,4.17,22.47,10.6,34.35,13.17Z" style="transition-property: none;">
		</path>
		<path fill="#6950c3" d="M343.79,116.64s0,0,.08,0-.06,0-.08,0Z" style="transition-property: none;">
		</path>
		<path fill="#6950c3" d="M335.11,54.18a12.29,12.29,0,0,0-8.49-5.61,12.32,12.32,0,0,1,8.46,5.61c21.22,34.64,50.78,45.64,97.42,52.88h0C385.89,99.82,356.33,88.8,335.11,54.18Z" style="transition-property: none;">
		</path>
		<path fill="#6950c3" d="M405.18,230.61C430,204.19,438.6,170.3,443.76,122h0c-5.15,48.3-13.75,82.19-38.6,108.63a103.67,103.67,0,0,0,4,12.59c11.22-2.45,29.43-9.06,34.28-13.29h0c-4.87,4.23-23.06,10.83-34.25,13.28A101.59,101.59,0,0,1,405.18,230.61Z" style="transition-property: none;">
		</path>
	</g>
	<g id="Bounding_Box" data-name="Bounding Box">
		<rect fill="none" width="720" height="404" style="transition-property: none;">
		</rect>
		<rect fill="none" width="720" height="404" style="transition-property: none;">
		</rect>
	</g>
	<title id="titleid594c07307">
		Purple and blue icon showing a female presenting physician with a stethoscope around their neck.
	</title>
</svg>
