<?xml version="1.0" standalone="no"?>
<!DOCTYPE svg PUBLIC "-//W3C//DTD SVG 20010904//EN"
 "http://www.w3.org/TR/2001/REC-SVG-20010904/DTD/svg10.dtd">
<svg version="1.0" xmlns="http://www.w3.org/2000/svg"
 width="350.000000pt" height="350.000000pt" viewBox="0 0 350.000000 350.000000"
 preserveAspectRatio="xMidYMid meet">
<metadata>
Created by potrace 1.11, written by Peter Selinger 2001-2013
</metadata>
<g transform="translate(0.000000,350.000000) scale(0.100000,-0.100000)"
fill="#000000" stroke="none">
<path d="M924 2995 c-2 -5 -3 -545 -2 -1200 l3 -1190 248 -1 247 -2 1 32 c0
17 1 66 1 109 l0 78 56 -53 c149 -141 302 -201 501 -197 215 4 401 83 544 231
54 56 117 139 117 153 0 4 8 19 18 33 10 15 24 43 31 62 7 19 17 44 22 55 12
28 39 140 47 194 14 95 8 343 -11 430 -28 128 -84 259 -152 350 -40 54 -140
150 -195 186 -135 89 -264 128 -430 128 -199 0 -327 -51 -464 -185 -44 -43
-80 -78 -81 -78 -1 0 -2 194 -2 430 0 237 -3 433 -6 436 -11 11 -489 10 -493
-1z m1037 -1044 c110 -34 196 -109 250 -217 102 -205 68 -465 -80 -614 -239
-241 -621 -116 -701 230 -28 121 -10 282 45 390 92 181 295 269 486 211z"/>
</g>
</svg>
