<svg viewBox="0 0 476 120" xmlns="http://www.w3.org/2000/svg">
	<title>
		Surest logo
	</title>
	<path d="M39.85,74.34c7.29,5.67,17.83,8.78,24.99,8.78,4.86,0,8.38-1.22,8.38-4.05,0-3.51-3.65-3.78-15.27-5.81-12.02-2.16-24.45-5.4-24.45-21.07s14.05-25.13,32.42-25.13c13.24,0,24.72,4.32,31.34,10l-10.81,15.67c-6.35-5-13.64-7.43-20.13-7.43-4.19,0-7.03,1.22-7.03,3.78,0,3.11,3.65,3.51,12.02,5,13.51,2.43,27.15,5.94,27.15,22.02s-15.4,25.4-34.99,25.4c-11.75,0-26.21-3.65-33.23-9.73l9.59-17.43Zm134.3,25.67h-25.67v-6.62c-3.78,4.19-10.27,8.24-19.05,8.24-14.32,0-24.32-10.13-24.32-25.8V30.55h25.67v39.06c0,5.81,2.57,9.86,8.38,9.86,4.86,0,9.32-3.24,9.32-10.27V30.55h25.67V100Zm63.2-35.8c0-21.35,15.81-36.78,37.02-36.78,22.42,0,34.72,15.7,34.72,36.64v5.81h-46.88c1.49,7.7,6.21,11.89,12.84,11.89,5.94,0,10.4-2.57,12.29-8.11l21.07,6.35c-5.27,14.46-19.59,21.62-33.77,21.62-22.43,0-37.29-15.27-37.29-37.42Zm25.4-8.51h21.48c-.27-5.13-3.92-9.59-10.13-9.59-5.4,0-9.59,3.11-11.35,9.59Zm-20.21-23.31s.06-.05,.09-.08c-4.5-2.92-10.94-3.84-14.67-3.57-7.68,.55-14.18,5.07-17.56,10.2v-8.38h-25.67V100h25.67v-32.78c0-9.59,6.03-15.26,14.81-15.01,2.46,.07,4.38,.83,5.69,1.44,1.84-8.16,5.81-15.5,11.65-21.27Zm134.09,16.94l5.25-18.79h1.7c2.86,0,5.34-2.41,6.21-7,.52-2.73,1.29-12.98,1.29-12.98l21.9,.14V30.52h13.15v18.79h-13.15v23.06c0,5.64,2.68,6.84,7.78,6.84,2.41,0,3.35-.13,5.77-.4v20.67c-4.16,.67-8.32,1.07-14.09,1.07-16.64,0-24.56-5.9-24.56-20.53v-30.7h-11.25Zm56.7,49.43v-6.38h-2.56v-3.02h8.54v3.02h-2.56v6.38h-3.42Zm11.51,0l-1.6-5.05v5.05h-2.96v-9.4h4.19l1.31,4.43,1.28-4.43h4.14v9.4h-2.99v-5.05l-1.6,5.05h-1.76Zm-92.27-44.5c-8.32-1.48-11.94-1.88-11.94-4.96,0-2.55,2.82-3.76,6.98-3.76,6.44,0,15.75,2.13,21.13,5.53l5.16-17.5c-5.26-3.04-15.33-6.25-26.7-6.15-18.25,.17-32.21,9.39-32.21,24.96s12.35,18.79,24.29,20.94c11.54,2.01,15.17,2.28,15.17,5.77,0,2.82-3.49,4.03-8.32,4.03-7.11,0-18.18-3.21-25.42-8.84l-1.19-.96c-1.19,6.79-3.8,13.08-7.51,18.57,7.02,5.98,21.17,9.48,32.78,9.48,19.46,0,34.76-8.72,34.76-25.23s-13.55-19.46-26.98-21.88Z">
	</path>
</svg>
