<svg viewBox="0 0 18 14" xmlns="http://www.w3.org/2000/svg" class="jsx-337350197 twitter"><title class="jsx-337350197">Follow Bind Insurance on Twitter</title><g stroke="none" class="jsx-337350197"><g transform="translate(-120.000000, -500.000000)" class="jsx-337350197"><g class="jsx-337350197"><g transform="translate(120.000000, 499.000000)" class="jsx-337350197"><g id="twitter" transform="translate(0.000000, 1.000000)" class="jsx-337350197"><path d="M15.4591349,3.49054187 C15.4700721,3.64359528 15.4700721,3.79668235 15.4700721,3.94973576 C15.4700721,8.61806672 11.9168974,13.9970797 5.42272813,13.9970797 C3.42199563,13.9970797 1.563413,13.4176104 0,12.411826 C0.284266087,12.4446039 0.557561328,12.4555411 0.852764609,12.4555411 C2.50360786,12.4555411 4.02330574,11.8979798 5.23686314,10.9468141 C3.68438733,10.9140025 2.38336603,9.89724729 1.93510934,8.49782489 C2.15378591,8.53060282 2.37242883,8.55247721 2.6020426,8.55247721 C2.91908662,8.55247721 3.23616429,8.50872844 3.53133392,8.43223538 C1.9132686,8.10422052 0.699677545,6.68295739 0.699677545,4.96649097 L0.699677545,4.92277585 C1.16977497,5.18516755 1.71646641,5.34915816 2.29586848,5.37099889 C1.34470277,4.73687721 0.721551933,3.65453248 0.721551933,2.43003788 C0.721551933,1.77407546 0.89644608,1.17276536 1.20258656,0.647981958 C2.94092736,2.79083068 5.55390715,4.19021942 8.48389732,4.34330648 C8.429245,4.08091478 8.39643342,3.80761954 8.39643342,3.53429065 C8.39643342,1.58821047 9.97078361,0.00295673077 11.9277673,0.00295673077 C12.9445226,0.00295673077 13.8628767,0.429339035 14.5079356,1.11811304 C15.3060142,0.965059628 16.0713149,0.669856346 16.7491854,0.26534843 C16.48676,1.08533511 15.9291987,1.77410911 15.1967096,2.21139496 C15.9073579,2.13490191 16.596132,1.93806607 17.23022,1.66477083 C16.7492527,2.36444837 16.1479089,2.98759921 15.4591349,3.49054187 Z" class="jsx-337350197"></path></g></g></g></g></g></svg>