<svg xmlns="http://www.w3.org/2000/svg" viewBox="0 0 250 38.89" role="img" aria-labelledby="titleid82ae47059" width="257" height="39" style="width: 257px; height: 39px; display: block; transform: scale(1, 1); transition-property: none;"><defs><linearGradient class="cerosgradient" data-cerosgradient="true" id="CerosGradient_iddf2329103" gradientUnits="userSpaceOnUse" x1="50%" y1="100%" x2="50%" y2="0%"><stop offset="0%" stop-color="#d1d1d1" style="transition-property: none;"></stop><stop offset="100%" stop-color="#d1d1d1" style="transition-property: none;"></stop></linearGradient><linearGradient></linearGradient><style>.cls-1-iddf2329103{fill:#001b65;}</style></defs><g id="Layer_2iddf2329103" data-name="Layer 2"><g id="graphicsiddf2329103"><path class="cls-1-iddf2329103" d="M248.25,15.6a1.77,1.77,0,0,0,0,3.54,1.77,1.77,0,0,0,0-3.54Zm0,3.25a1.49,1.49,0,1,1,1.43-1.49A1.41,1.41,0,0,1,248.25,18.85ZM94.9,15.65c-3.81,0-6.34,3.63-6.34,7.61s2.44,7.62,6.63,7.62c2.93,0,4.59-2,5.26-4.27l-1.25-.35a3.68,3.68,0,0,1-3.64,2.79c-2.35,0-4-2.24-4-5.79h9v-.84C100.65,18.67,98.44,15.65,94.9,15.65Zm-3.23,6.19C92,19,93.12,17.3,94.87,17.3c1.6,0,2.61,1.49,2.73,4.54ZM128.6,11.25l.43,0c1.08.06,1.9.5,1.9,1.72v6.34h-7.62V13c0-1.22.81-1.63,1.89-1.72l.4,0v-1h-7.7v1l.43,0c1.08.06,1.89.5,1.89,1.72V27.83c0,1.22-.81,1.66-1.89,1.72l-.43,0v1h7.7v-1l-.4,0c-1.08-.09-1.89-.5-1.89-1.72V20.91h7.62v6.92c0,1.22-.82,1.66-1.9,1.72l-.43,0v1h7.7v-1l-.4,0c-1.08-.09-1.89-.5-1.89-1.72V13c0-1.22.81-1.63,1.89-1.72l.4,0v-1h-7.7Zm112.22,4.4c-3.81,0-6.34,3.63-6.34,7.61s2.44,7.62,6.63,7.62c2.94,0,4.59-2,5.26-4.27l-1.25-.35a3.68,3.68,0,0,1-3.63,2.79c-2.36,0-4-2.24-4-5.79h9.05v-.84C246.58,18.67,244.37,15.65,240.82,15.65Zm-3.23,6.19c.29-2.82,1.45-4.54,3.2-4.54,1.6,0,2.62,1.49,2.73,4.54ZM55.43,10.24H48.66v1l.44,0a2.08,2.08,0,0,1,2,2.16V23.53c0,3.28-1.72,5.29-4.39,5.29s-4.3-2.12-4.3-5.32V13.14c0-1.13.61-1.77,1.89-1.86l.4,0v-1H37v1l.43,0c1.25.09,1.89.7,1.89,1.86V23.93c0,4,2.36,7.1,6.87,7.1C50.08,31,53,28.18,53,23.85V13.44a2.09,2.09,0,0,1,2-2.16l.4,0ZM85.36,29c-1.22,0-1.63-.9-1.63-1.94V17.59h4V16.08h-4V11.6H82.27c-.55,3.38-2.26,4.6-4.07,5v1h2.68v9.75a3.26,3.26,0,0,0,3.55,3.54c2,0,3.37-1.48,4-3.6l-1-.29C87,28.21,86.29,29,85.36,29ZM74.77,13.46a1.92,1.92,0,0,0,0-3.83,1.92,1.92,0,0,0,0,3.83Zm-6,14.4V19.92a3.9,3.9,0,0,0-4.16-4.16A4.45,4.45,0,0,0,60.29,19V15.82l-4.89.38v1l.59,0c.9.06,1.45.49,1.45,1.71v9a1.5,1.5,0,0,1-1.6,1.72l-.44,0v1h6.9v-1l-.41,0a1.5,1.5,0,0,1-1.6-1.72V23.09c.06-3.49,1.57-5.58,3.34-5.58,1.37,0,2.27.93,2.27,2.73v7.62a1.5,1.5,0,0,1-1.6,1.72l-.43,0v1h6.89v-1l-.41,0A1.5,1.5,0,0,1,68.75,27.86Zm7.53,0v-12l-5,.38v1l.73,0c.9,0,1.45.49,1.45,1.71v9a1.49,1.49,0,0,1-1.59,1.72l-.44,0v1h6.89v-1l-.41,0A1.5,1.5,0,0,1,76.28,27.86Zm38.68,0v-18L110,10.3v.95l.64,0c.9,0,1.45.5,1.45,1.72v5.23a4.11,4.11,0,0,0-4-2.58c-3.81,0-6,3.63-6,7.61s2.15,7.62,6,7.62a4.1,4.1,0,0,0,4-2.67v2.38H117v-1l-.41,0A1.5,1.5,0,0,1,115,27.86Zm-6.4,1.37c-2,0-3.37-2.3-3.37-6s1.34-6,3.37-6,3.55,2.33,3.55,6S110.71,29.23,108.56,29.23Zm85.32-1.37V19.92a3.9,3.9,0,0,0-4.16-4.16,4.45,4.45,0,0,0-4.3,3.23V9.86l-4.94.44v.95l.64,0c.9,0,1.45.5,1.45,1.72V27.86a1.5,1.5,0,0,1-1.6,1.72l-.44,0v1h6.9v-1l-.41,0a1.5,1.5,0,0,1-1.6-1.72V23.09c.06-3.49,1.57-5.58,3.34-5.58,1.37,0,2.27.93,2.27,2.73v7.62a1.5,1.5,0,0,1-1.6,1.72l-.43,0v1h6.89v-1l-.41,0A1.5,1.5,0,0,1,193.88,27.86Zm9.66,1.19c-2.36,0-4-2.24-4-5.79s1.57-5.9,3.93-5.9a2.83,2.83,0,0,1,2.35,1,1.63,1.63,0,0,0-.72,1.34,1.55,1.55,0,0,0,1.54,1.54,1.57,1.57,0,0,0,1.54-1.69c0-1.74-1.75-3.89-4.86-3.89-4.33,0-6.83,3.63-6.83,7.61s2.44,7.62,6.63,7.62a5.23,5.23,0,0,0,5.15-4.1l-1.25-.37A3.56,3.56,0,0,1,203.54,29.05Zm16.78-.87V20.59c0-3.11-1.95-4.94-5.24-4.94-2.82,0-5.32,1.86-5.32,4a1.54,1.54,0,1,0,3.08.06,1.59,1.59,0,0,0-.78-1.37,3.08,3.08,0,0,1,2.59-1.16c1.77,0,2.85,1.34,2.85,3.57v.67l-4.31,1.78c-2.88,1.19-3.87,2.24-3.87,4.13,0,2.18,1.57,3.57,4.05,3.57a4.4,4.4,0,0,0,4.1-2.85v.44c0,1.48,1,2.38,2.79,2.38a5.87,5.87,0,0,0,1.83-.26v-1C220.87,29.75,220.32,29.28,220.32,28.18Zm-2.85-3.29c-.15,2.56-1.43,4.28-3.2,4.28a2,2,0,0,1-2.1-2.21A2.78,2.78,0,0,1,214,24.31l3.46-1.54Zm14-9.19a4,4,0,0,0-3.78,3.09v-3l-4.88.38v1l.58,0c.9.06,1.45.49,1.45,1.71v9a1.5,1.5,0,0,1-1.6,1.72l-.43,0v1h6.89v-1l-.41,0a1.5,1.5,0,0,1-1.6-1.72V23c.06-3.63,1.63-5.9,3.55-5.9a1.17,1.17,0,0,1,1,.38,1.51,1.51,0,0,0-.81,1.37,1.55,1.55,0,0,0,1.54,1.54,1.59,1.59,0,0,0,1.54-1.69A2.89,2.89,0,0,0,231.45,15.7Zm17.33,1.72a.43.43,0,0,0,.31-.47c0-.36-.21-.55-.62-.55h-.93v2h.3v-.78h.53c.28,0,.37.11.39.42a.62.62,0,0,0,.06.36h.34a.52.52,0,0,1-.09-.29C249.05,17.59,249,17.51,248.78,17.42Zm-.34-.11h-.6v-.64h.58c.24,0,.35.1.35.31A.3.3,0,0,1,248.44,17.31ZM161.05,28.18V20.59c0-3.11-2-4.94-5.23-4.94-2.82,0-5.32,1.86-5.32,4a1.54,1.54,0,1,0,3.08.06,1.58,1.58,0,0,0-.79-1.37,3.1,3.1,0,0,1,2.59-1.16c1.77,0,2.85,1.34,2.85,3.57v.67l-4.3,1.78c-2.88,1.19-3.87,2.24-3.87,4.13,0,2.18,1.57,3.57,4,3.57A4.4,4.4,0,0,0,158.2,28v.44c0,1.48,1.05,2.38,2.79,2.38a6,6,0,0,0,1.84-.26v-1C161.6,29.75,161.05,29.28,161.05,28.18Zm-2.85-3.29c-.14,2.56-1.42,4.28-3.2,4.28A2,2,0,0,1,152.91,27a2.78,2.78,0,0,1,1.86-2.65l3.46-1.54ZM179.49,27c-.41,1.22-1.08,2-2,2-1.22,0-1.63-.9-1.63-1.94V17.59h4V16.08h-4V11.6H174.4c-.55,3.38-2.27,4.6-4.07,5v1H173v9.75a3.26,3.26,0,0,0,3.55,3.54c2,0,3.37-1.48,4-3.6ZM143.2,15.65c-3.81,0-6.34,3.63-6.34,7.61s2.44,7.62,6.63,7.62c2.93,0,4.59-2,5.26-4.27l-1.25-.35a3.68,3.68,0,0,1-3.63,2.79c-2.36,0-4-2.24-4-5.79h9v-.84C149,18.67,146.74,15.65,143.2,15.65ZM140,21.84c.29-2.82,1.45-4.54,3.2-4.54s2.61,1.49,2.73,4.54Zm28.44,6v-18l-4.94.44v.95l.63,0c.91,0,1.46.5,1.46,1.72V27.86a1.5,1.5,0,0,1-1.6,1.72l-.44,0v1h6.9v-1l-.41,0A1.5,1.5,0,0,1,168.41,27.86ZM6.23,37.11h0a12,12,0,0,0,3.92.65c5.91,0,10-4.28,10-12.43V1.07L22.42,0V25.76c0,8.3-4.29,13.13-10.35,13.13A10.62,10.62,0,0,1,6.23,37.11ZM3.67,34.64h0a12.64,12.64,0,0,0,3.92.75c5,0,8.27-3.11,8.27-10.15V2.92l2.21-1V25.43c0,7.37-3.73,11.13-8.92,11.13A9.35,9.35,0,0,1,3.67,34.64Zm-1.56-2.2h0A11.71,11.71,0,0,0,5.38,33c3.87,0,6.23-2.11,6.23-7.65V4.8l2.18-1V25c0,6.23-2.86,9.05-6.95,9.05A7.71,7.71,0,0,1,2.11,32.44ZM9.57,26V5.64L0,10V26.44c0,3.14,2,5.25,4.9,5.25S9.57,29.55,9.57,26Z" style="transition-property: none;"></path></g></g><title id="titleid82ae47059">UnitedHealthcare Logo</title></svg>