<svg class="youtube" xmlns="http://www.w3.org/2000/svg" version="1.1" x="0px" y="0px" viewBox="0 0 72 50" xml:space="preserve" width="36" height="25">
	<title>
		Subscribe to Bind Insurance on YouTube
	</title>
	<g stroke="none">
		<g transform="translate(-234.000000, -502.000000)">
			<g>
				<g transform="translate(120.000000, 499.000000)">
					<g id="youtube" transform="translate(114.000000, 3.000000)">
						<path d="M22.3189583,1.87759375 C22.05725,1.13853125 21.2861667,0.55646875 20.307125,0.3589375 C18.5325417,0 11.4166667,0 11.4166667,0 C11.4166667,0 4.30083333,0 2.52620833,0.3589375 C1.54716667,0.5565 0.776083333,1.13853125 0.514375,1.87759375 C0.038875,3.2171875 0.038875,6.012125 0.038875,6.012125 C0.038875,6.012125 0.038875,8.8070625 0.514375,10.1466563 C0.776083333,10.8857188 1.54716667,11.4435313 2.52620833,11.6410625 C4.30083333,12 11.4166667,12 11.4166667,12 C11.4166667,12 18.5325,12 20.307125,11.6410625 C21.2861667,11.4435312 22.05725,10.8857188 22.3189583,10.1466562 C22.7944583,8.8070625 22.7944583,6.012125 22.7944583,6.012125 C22.7944583,6.012125 22.7944583,3.2171875 22.3189583,1.87759375 Z M9.089375,8.54971875 L9.089375,3.47453125 L15.0368333,6.0121875 L9.089375,8.54971875 Z" id="Shape">
						</path>
					</g>
				</g>
			</g>
		</g>
	</g>
	<g transform="scale(0.58823529,0.58823529)">
		<path fill="white" d="M 35.705078 0 C 35.705078 0 13.35386 0.0001149 7.765625 1.4707031 C 4.765625 2.2942325 2.2942325 4.7653952 1.4707031 7.8242188 C 0.0001149 13.412454 -2.9605947e-016 25 0 25 C 0 25 0.0001149 36.64637 1.4707031 42.175781 C 2.2942325 45.234605 4.7068015 47.647174 7.765625 48.470703 C 13.412684 50.000115 35.705078 50 35.705078 50 C 35.705078 50 58.058249 49.999885 63.646484 48.529297 C 66.705308 47.705767 69.117877 45.293199 69.941406 42.234375 C 71.411994 36.64614 71.412109 25.058594 71.412109 25.058594 C 71.412109 25.058594 71.470818 13.412454 69.941406 7.8242188 C 69.117877 4.7653952 66.705308 2.3528263 63.646484 1.5292969 C 58.058249 -0.000114879 35.705078 2.9605947e-016 35.705078 0 z M 28.587891 14.294922 L 47.175781 25 L 28.587891 35.705078 L 28.587891 14.294922 z " transform="scale(1.7,1.7)">
		</path>
	</g>
</svg>
